{
  "source": "C:\\Users\\Peter\\Desktop\\stuff\\MIUN\\quantitative_research\\video_compression\\videos\\BVI-HD\\BVI-HD_CDVL_videos\\ORIG\\TreeTrunk_1920x1080_50fps.mp4",
  "output": "C:\\Users\\Peter\\Desktop\\stuff\\MIUN\\quantitative_research\\video_compression\\compressed_videos\\BVI-HD\\hevc\\2\\TreeTrunk_1920x1080_50fps_hevc.mp4",
  "codec": "hevc",
  "ok": "Input #0, mov,mp4,m4a,3gp,3g2,mj2, from 'C:\\Users\\Peter\\Desktop\\stuff\\MIUN\\quantitative_research\\video_compression\\videos\\BVI-HD\\BVI-HD_CDVL_videos\\ORIG\\TreeTrunk_1920x1080_50fps.mp4':\n  Metadata:\n    major_brand     : isom\n    minor_version   : 512\n    compatible_brands: isomiso2avc1mp41\n    encoder         : Lavf54.28.101\n  Duration: 00:00:05.00, start: 0.000000, bitrate: 622415 kb/s\n  Stream #0:0[0x1](und): Video: h264 (High 4:4:4 Predictive) (avc1 / 0x31637661), yuv420p(progressive), 1920x1080, 622410 kb/s, 50 fps, 50 tbr, 50 tbn (default)\n    Metadata:\n      handler_name    : VideoHandler\n      vendor_id       : [0][0][0][0]\n[out#0/mp4 @ 000001c8f3b87d80] Codec AVOption b:a (set bitrate (in bits/s)) has not been used for any stream. The most likely reason is either wrong type (e.g. a video option with no video streams) or that it is a private option of some decoder which was not actually used for any stream.\nStream mapping:\n  Stream #0:0 -> #0:0 (h264 (native) -> hevc (libx265))\nPress [q] to stop, [?] for help\n[libx265 @ 000001c8f4730b40] Unknown option: \"aq-mode.\nx265 [info]: HEVC encoder version 4.1+190-8f11c33ac\nx265 [info]: build info [Windows][GCC 15.1.0][64 bit] 10bit\nx265 [info]: using cpu capabilities: MMX2 SSE2Fast LZCNT SSSE3 SSE4.2 AVX FMA3 BMI2 AVX2\nx265 [info]: Main 10 profile, Level-4.1 (Main tier)\nx265 [info]: Thread pool created using 12 threads\nx265 [info]: Slices                              : 1\nx265 [info]: frame threads / pool features       : 3 / wpp(17 rows)\nx265 [info]: Coding QT: max CU size, min CU size : 64 / 8\nx265 [info]: Residual QT: max TU size, max depth : 32 / 1 inter / 1 intra\nx265 [info]: ME / range / subpel / merge         : star / 57 / 3 / 3\nx265 [info]: Keyframe min / max / scenecut / bias  : 25 / 250 / 40 / 5.00 \nx265 [info]: Lookahead / bframes / badapt        : 25 / 4 / 2\nx265 [info]: b-pyramid / weightp / weightb       : 1 / 1 / 0\nx265 [info]: References / ref-limit  cu / depth  : 4 / on / on\nx265 [info]: AQ: mode / str / qg-size / cu-tree  : 2 / 1.0 / 32 / 1\nx265 [info]: Rate Control / qCompress            : ABR-2000 kbps / 0.60\nx265 [info]: VBV/HRD buffer / max-rate / init    : 2000 / 2000 / 0.750\nx265 [info]: tools: rect limit-modes rd=4 psy-rd=2.00 rdoq=2 psy-rdoq=1.00\nx265 [info]: tools: rskip mode=1 signhide tmvp strong-intra-smoothing lslices=4\nx265 [info]: tools: deblock sao dhdr10-info\nOutput #0, mp4, to 'C:\\Users\\Peter\\Desktop\\stuff\\MIUN\\quantitative_research\\video_compression\\compressed_videos\\BVI-HD\\hevc\\2\\TreeTrunk_1920x1080_50fps_hevc.mp4':\n  Metadata:\n    major_brand     : isom\n    minor_version   : 512\n    compatible_brands: isomiso2avc1mp41\n    encoder         : Lavf62.3.100\n  Stream #0:0(und): Video: hevc (hev1 / 0x31766568), yuv420p10le(tv, progressive), 1920x1080, q=2-31, 2000 kb/s, 50 fps, 12800 tbn (default)\n    Metadata:\n      encoder         : Lavc62.11.100 libx265\n      handler_name    : VideoHandler\n      vendor_id       : [0][0][0][0]\n    Side data:\n      cpb: bitrate max/min/avg: 2000000/0/2000000 buffer size: 2000000 vbv_delay: N/A\nframe=    0 fps=0.0 q=0.0 size=       0KiB time=N/A bitrate=N/A speed=N/A elapsed=0:00:01.18    \nframe=    0 fps=0.0 q=0.0 size=       0KiB time=N/A bitrate=N/A speed=N/A elapsed=0:00:01.69    \nframe=    0 fps=0.0 q=0.0 size=       0KiB time=N/A bitrate=N/A speed=N/A elapsed=0:00:02.21    \nframe=    0 fps=0.0 q=0.0 size=       0KiB time=N/A bitrate=N/A speed=N/A elapsed=0:00:02.76    \nframe=    0 fps=0.0 q=0.0 size=       0KiB time=N/A bitrate=N/A speed=N/A elapsed=0:00:03.36    \nframe=    0 fps=0.0 q=0.0 size=       0KiB time=N/A bitrate=N/A speed=N/A elapsed=0:00:03.89    \nframe=    0 fps=0.0 q=0.0 size=       0KiB time=N/A bitrate=N/A speed=N/A elapsed=0:00:04.45    \nframe=    0 fps=0.0 q=0.0 size=       0KiB time=N/A bitrate=N/A speed=N/A elapsed=0:00:05.00    \nframe=    0 fps=0.0 q=0.0 size=       0KiB time=N/A bitrate=N/A speed=N/A elapsed=0:00:05.56    \nframe=    0 fps=0.0 q=0.0 size=       0KiB time=N/A bitrate=N/A speed=N/A elapsed=0:00:06.09    \nframe=    0 fps=0.0 q=0.0 size=       0KiB time=N/A bitrate=N/A speed=N/A elapsed=0:00:06.65    \nframe=    0 fps=0.0 q=0.0 size=       0KiB time=N/A bitrate=N/A speed=N/A elapsed=0:00:07.22    \nframe=    0 fps=0.0 q=0.0 size=       0KiB time=N/A bitrate=N/A speed=N/A elapsed=0:00:07.79    \nframe=    0 fps=0.0 q=0.0 size=       0KiB time=N/A bitrate=N/A speed=N/A elapsed=0:00:08.32    \nframe=    0 fps=0.0 q=0.0 size=       0KiB time=N/A bitrate=N/A speed=N/A elapsed=0:00:08.87    \nframe=    0 fps=0.0 q=0.0 size=       0KiB time=N/A bitrate=N/A speed=N/A elapsed=0:00:09.40    \nframe=    2 fps=0.2 q=50.9 size=       0KiB time=00:00:00.00 bitrate=N/A speed=   0x elapsed=0:00:09.92    \nframe=    4 fps=0.4 q=51.0 size=       0KiB time=00:00:00.04 bitrate=   8.8kbits/s speed=0.00382x elapsed=0:00:10.45    \nframe=    5 fps=0.5 q=51.0 size=       0KiB time=00:00:00.06 bitrate=   5.9kbits/s speed=0.00546x elapsed=0:00:10.98    \nframe=    6 fps=0.5 q=51.0 size=       0KiB time=00:00:00.08 bitrate=   4.4kbits/s speed=0.00689x elapsed=0:00:11.61    \nframe=    7 fps=0.6 q=41.0 size=       0KiB time=00:00:00.10 bitrate=   3.5kbits/s speed=0.0082x elapsed=0:00:12.20    \nframe=    8 fps=0.6 q=46.0 size=       0KiB time=00:00:00.12 bitrate=   2.9kbits/s speed=0.00942x elapsed=0:00:12.73    \nframe=    8 fps=0.6 q=46.0 size=       0KiB time=00:00:00.12 bitrate=   2.9kbits/s speed=0.00906x elapsed=0:00:13.23    \nframe=    9 fps=0.7 q=45.0 size=       0KiB time=00:00:00.14 bitrate=   2.5kbits/s speed=0.0102x elapsed=0:00:13.77    \nframe=    9 fps=0.6 q=45.0 size=       0KiB time=00:00:00.14 bitrate=   2.5kbits/s speed=0.00979x elapsed=0:00:14.30    \nframe=    9 fps=0.6 q=45.0 size=       0KiB time=00:00:00.14 bitrate=   2.5kbits/s speed=0.00942x elapsed=0:00:14.86    \nframe=    9 fps=0.6 q=45.0 size=       0KiB time=00:00:00.14 bitrate=   2.5kbits/s speed=0.00909x elapsed=0:00:15.40    \nframe=   11 fps=0.7 q=46.0 size=       0KiB time=00:00:00.18 bitrate=   2.0kbits/s speed=0.0113x elapsed=0:00:15.98    \nframe=   12 fps=0.7 q=39.2 size=       0KiB time=00:00:00.20 bitrate=   1.8kbits/s speed=0.0121x elapsed=0:00:16.58    \nframe=   13 fps=0.8 q=47.0 size=       0KiB time=00:00:00.22 bitrate=   1.6kbits/s speed=0.0128x elapsed=0:00:17.12    \nframe=   13 fps=0.7 q=47.0 size=       0KiB time=00:00:00.22 bitrate=   1.6kbits/s speed=0.0124x elapsed=0:00:17.70    \nframe=   14 fps=0.8 q=46.0 size=       0KiB time=00:00:00.24 bitrate=   1.5kbits/s speed=0.0131x elapsed=0:00:18.27    \nframe=   14 fps=0.7 q=46.0 size=       0KiB time=00:00:00.24 bitrate=   1.5kbits/s speed=0.0127x elapsed=0:00:18.82    \nframe=   14 fps=0.7 q=46.0 size=       0KiB time=00:00:00.24 bitrate=   1.5kbits/s speed=0.0124x elapsed=0:00:19.40    \nframe=   15 fps=0.8 q=47.0 size=       0KiB time=00:00:00.26 bitrate=   1.4kbits/s speed=0.013x elapsed=0:00:19.93    \nframe=   16 fps=0.8 q=47.0 size=       0KiB time=00:00:00.28 bitrate=   1.3kbits/s speed=0.0137x elapsed=0:00:20.45    \nframe=   17 fps=0.8 q=39.5 size=       0KiB time=00:00:00.28 bitrate=   1.3kbits/s speed=0.0134x elapsed=0:00:20.96    \nframe=   18 fps=0.8 q=47.0 size=       0KiB time=00:00:00.32 bitrate=   1.1kbits/s speed=0.0149x elapsed=0:00:21.53    \nframe=   19 fps=0.9 q=48.0 size=       0KiB time=00:00:00.34 bitrate=   1.0kbits/s speed=0.0154x elapsed=0:00:22.10    \nframe=   21 fps=0.9 q=46.0 size=       0KiB time=00:00:00.38 bitrate=   0.9kbits/s speed=0.0168x elapsed=0:00:22.67    \nframe=   23 fps=1.0 q=45.0 size=       0KiB time=00:00:00.42 bitrate=   0.8kbits/s speed=0.0181x elapsed=0:00:23.20    \nframe=   24 fps=1.0 q=45.9 size=       0KiB time=00:00:00.44 bitrate=   0.8kbits/s speed=0.0185x elapsed=0:00:23.75    \nframe=   25 fps=1.0 q=46.0 size=       0KiB time=00:00:00.46 bitrate=   0.8kbits/s speed=0.0189x elapsed=0:00:24.29    \nframe=   25 fps=1.0 q=46.0 size=       0KiB time=00:00:00.46 bitrate=   0.8kbits/s speed=0.0185x elapsed=0:00:24.81    \nframe=   25 fps=1.0 q=46.0 size=       0KiB time=00:00:00.46 bitrate=   0.8kbits/s speed=0.0181x elapsed=0:00:25.35    \nframe=   25 fps=1.0 q=46.0 size=       0KiB time=00:00:00.46 bitrate=   0.8kbits/s speed=0.0177x elapsed=0:00:25.93    \nframe=   27 fps=1.0 q=38.7 size=       0KiB time=00:00:00.50 bitrate=   0.7kbits/s speed=0.0189x elapsed=0:00:26.46    \nframe=   27 fps=1.0 q=38.7 size=       0KiB time=00:00:00.50 bitrate=   0.7kbits/s speed=0.0185x elapsed=0:00:27.05    \nframe=   27 fps=1.0 q=38.7 size=       0KiB time=00:00:00.50 bitrate=   0.7kbits/s speed=0.0181x elapsed=0:00:27.57    \nframe=   28 fps=1.0 q=46.0 size=       0KiB time=00:00:00.52 bitrate=   0.7kbits/s speed=0.0185x elapsed=0:00:28.12    \nframe=   28 fps=1.0 q=46.0 size=       0KiB time=00:00:00.52 bitrate=   0.7kbits/s speed=0.0181x elapsed=0:00:28.69    \nframe=   29 fps=1.0 q=47.0 size=       0KiB time=00:00:00.54 bitrate=   0.7kbits/s speed=0.0185x elapsed=0:00:29.23    \nframe=   29 fps=1.0 q=47.0 size=       0KiB time=00:00:00.54 bitrate=   0.7kbits/s speed=0.0181x elapsed=0:00:29.75    \nframe=   31 fps=1.0 q=43.0 size=       0KiB time=00:00:00.58 bitrate=   0.6kbits/s speed=0.0192x elapsed=0:00:30.27    \nframe=   31 fps=1.0 q=43.0 size=       0KiB time=00:00:00.58 bitrate=   0.6kbits/s speed=0.0188x elapsed=0:00:30.81    \nframe=   32 fps=1.0 q=36.4 size=       0KiB time=00:00:00.60 bitrate=   0.6kbits/s speed=0.0191x elapsed=0:00:31.35    \nframe=   33 fps=1.0 q=42.9 size=       0KiB time=00:00:00.62 bitrate=   0.6kbits/s speed=0.0194x elapsed=0:00:31.90    \nframe=   34 fps=1.0 q=43.0 size=       0KiB time=00:00:00.64 bitrate=   0.6kbits/s speed=0.0197x elapsed=0:00:32.48    \nframe=   34 fps=1.0 q=43.0 size=       0KiB time=00:00:00.64 bitrate=   0.6kbits/s speed=0.0194x elapsed=0:00:33.02    \nframe=   36 fps=1.1 q=44.0 size=       0KiB time=00:00:00.68 bitrate=   0.5kbits/s speed=0.0203x elapsed=0:00:33.57    \nframe=   36 fps=1.1 q=44.0 size=       0KiB time=00:00:00.68 bitrate=   0.5kbits/s speed=0.0199x elapsed=0:00:34.10    \nframe=   37 fps=1.1 q=45.0 size=       0KiB time=00:00:00.70 bitrate=   0.5kbits/s speed=0.0202x elapsed=0:00:34.64    \nframe=   37 fps=1.0 q=45.0 size=       0KiB time=00:00:00.70 bitrate=   0.5kbits/s speed=0.0198x elapsed=0:00:35.26    \nframe=   37 fps=1.0 q=45.0 size=       0KiB time=00:00:00.70 bitrate=   0.5kbits/s speed=0.0195x elapsed=0:00:35.84    \nframe=   37 fps=1.0 q=45.0 size=       0KiB time=00:00:00.70 bitrate=   0.5kbits/s speed=0.0192x elapsed=0:00:36.37    \nframe=   38 fps=1.0 q=44.0 size=       0KiB time=00:00:00.72 bitrate=   0.5kbits/s speed=0.0195x elapsed=0:00:36.95    \nframe=   39 fps=1.0 q=44.0 size=       0KiB time=00:00:00.74 bitrate=   0.5kbits/s speed=0.0197x elapsed=0:00:37.53    \nframe=   41 fps=1.1 q=44.0 size=       0KiB time=00:00:00.78 bitrate=   0.5kbits/s speed=0.0205x elapsed=0:00:38.10    \nframe=   41 fps=1.1 q=44.0 size=       0KiB time=00:00:00.78 bitrate=   0.5kbits/s speed=0.0202x elapsed=0:00:38.64    \nframe=   43 fps=1.1 q=43.0 size=       0KiB time=00:00:00.82 bitrate=   0.4kbits/s speed=0.0209x elapsed=0:00:39.18    \nframe=   44 fps=1.1 q=43.0 size=       0KiB time=00:00:00.84 bitrate=   0.4kbits/s speed=0.0211x elapsed=0:00:39.74    \nframe=   44 fps=1.1 q=43.0 size=       0KiB time=00:00:00.84 bitrate=   0.4kbits/s speed=0.0208x elapsed=0:00:40.32    \nframe=   44 fps=1.1 q=43.0 size=       0KiB time=00:00:00.84 bitrate=   0.4kbits/s speed=0.0206x elapsed=0:00:40.85    \nframe=   44 fps=1.1 q=43.0 size=       0KiB time=00:00:00.84 bitrate=   0.4kbits/s speed=0.0203x elapsed=0:00:41.44    \nframe=   44 fps=1.0 q=43.0 size=       0KiB time=00:00:00.84 bitrate=   0.4kbits/s speed=0.0199x elapsed=0:00:42.12    \nframe=   45 fps=1.1 q=35.4 size=       0KiB time=00:00:00.86 bitrate=   0.4kbits/s speed=0.0201x elapsed=0:00:42.73    \nframe=   45 fps=1.0 q=35.4 size=       0KiB time=00:00:00.86 bitrate=   0.4kbits/s speed=0.0198x elapsed=0:00:43.34    \nframe=   45 fps=1.0 q=35.4 size=       0KiB time=00:00:00.86 bitrate=   0.4kbits/s speed=0.0196x elapsed=0:00:43.89    \nframe=   45 fps=1.0 q=35.4 size=       0KiB time=00:00:00.86 bitrate=   0.4kbits/s speed=0.0194x elapsed=0:00:44.39    \nframe=   45 fps=1.0 q=35.4 size=       0KiB time=00:00:00.86 bitrate=   0.4kbits/s speed=0.0191x elapsed=0:00:44.95    \nframe=   45 fps=1.0 q=35.4 size=       0KiB time=00:00:00.86 bitrate=   0.4kbits/s speed=0.0189x elapsed=0:00:45.50    \nframe=   45 fps=1.0 q=35.4 size=       0KiB time=00:00:00.86 bitrate=   0.4kbits/s speed=0.0187x elapsed=0:00:46.08    \nframe=   45 fps=1.0 q=35.4 size=       0KiB time=00:00:00.86 bitrate=   0.4kbits/s speed=0.0184x elapsed=0:00:46.62    \nframe=   45 fps=1.0 q=35.4 size=       0KiB time=00:00:00.86 bitrate=   0.4kbits/s speed=0.0182x elapsed=0:00:47.21    \nframe=   46 fps=1.0 q=43.0 size=       0KiB time=00:00:00.88 bitrate=   0.4kbits/s speed=0.0184x elapsed=0:00:47.82    \nframe=   46 fps=1.0 q=43.0 size=       0KiB time=00:00:00.88 bitrate=   0.4kbits/s speed=0.0182x elapsed=0:00:48.41    \nframe=   47 fps=1.0 q=43.0 size=       0KiB time=00:00:00.90 bitrate=   0.4kbits/s speed=0.0184x elapsed=0:00:48.99    \nframe=   47 fps=0.9 q=43.0 size=       0KiB time=00:00:00.90 bitrate=   0.4kbits/s speed=0.0182x elapsed=0:00:49.51    \nframe=   48 fps=1.0 q=42.0 size=       0KiB time=00:00:00.92 bitrate=   0.4kbits/s speed=0.0184x elapsed=0:00:50.08    \nframe=   48 fps=0.9 q=42.0 size=       0KiB time=00:00:00.92 bitrate=   0.4kbits/s speed=0.0181x elapsed=0:00:50.75    \nframe=   49 fps=1.0 q=35.0 size=       0KiB time=00:00:00.94 bitrate=   0.4kbits/s speed=0.0183x elapsed=0:00:51.33    \nframe=   50 fps=1.0 q=41.9 size=       0KiB time=00:00:00.96 bitrate=   0.4kbits/s speed=0.0185x elapsed=0:00:51.85    \nframe=   51 fps=1.0 q=42.0 size=       0KiB time=00:00:00.98 bitrate=   0.4kbits/s speed=0.0187x elapsed=0:00:52.40    \nframe=   51 fps=1.0 q=42.0 size=       0KiB time=00:00:00.98 bitrate=   0.4kbits/s speed=0.0185x elapsed=0:00:52.97    \nframe=   52 fps=1.0 q=42.0 size=       0KiB time=00:00:01.00 bitrate=   0.4kbits/s speed=0.0187x elapsed=0:00:53.55    \nframe=   52 fps=1.0 q=42.0 size=       0KiB time=00:00:01.00 bitrate=   0.4kbits/s speed=0.0185x elapsed=0:00:54.05    \nframe=   52 fps=1.0 q=42.0 size=       0KiB time=00:00:01.00 bitrate=   0.4kbits/s speed=0.0183x elapsed=0:00:54.58    \nframe=   52 fps=0.9 q=42.0 size=       0KiB time=00:00:01.00 bitrate=   0.4kbits/s speed=0.0181x elapsed=0:00:55.13    \nframe=   53 fps=1.0 q=42.0 size=       0KiB time=00:00:01.02 bitrate=   0.3kbits/s speed=0.0183x elapsed=0:00:55.65    \nframe=   55 fps=1.0 q=41.9 size=       0KiB time=00:00:01.06 bitrate=   0.3kbits/s speed=0.0189x elapsed=0:00:56.17    \nframe=   56 fps=1.0 q=43.0 size=       0KiB time=00:00:01.08 bitrate=   0.3kbits/s speed=0.0191x elapsed=0:00:56.69    \nframe=   56 fps=1.0 q=43.0 size=       0KiB time=00:00:01.08 bitrate=   0.3kbits/s speed=0.0189x elapsed=0:00:57.25    \nframe=   56 fps=1.0 q=43.0 size=       0KiB time=00:00:01.08 bitrate=   0.3kbits/s speed=0.0187x elapsed=0:00:57.78    \nframe=   58 fps=1.0 q=42.0 size=       0KiB time=00:00:01.12 bitrate=   0.3kbits/s speed=0.0192x elapsed=0:00:58.31    \nframe=   58 fps=1.0 q=42.0 size=       0KiB time=00:00:01.12 bitrate=   0.3kbits/s speed=0.019x elapsed=0:00:58.87    \nframe=   59 fps=1.0 q=34.1 size=       0KiB time=00:00:01.14 bitrate=   0.3kbits/s speed=0.0192x elapsed=0:00:59.41    \nframe=   61 fps=1.0 q=42.0 size=     256KiB time=00:00:01.18 bitrate=1777.5kbits/s speed=0.0197x elapsed=0:00:59.93    \nframe=   61 fps=1.0 q=42.0 size=     256KiB time=00:00:01.18 bitrate=1777.5kbits/s speed=0.0195x elapsed=0:01:00.47    \nframe=   61 fps=1.0 q=42.0 size=     256KiB time=00:00:01.18 bitrate=1777.5kbits/s speed=0.0193x elapsed=0:01:01.00    \nframe=   62 fps=1.0 q=41.0 size=     256KiB time=00:00:01.20 bitrate=1747.9kbits/s speed=0.0195x elapsed=0:01:01.52    \nframe=   62 fps=1.0 q=41.0 size=     256KiB time=00:00:01.20 bitrate=1747.9kbits/s speed=0.0193x elapsed=0:01:02.06    \nframe=   62 fps=1.0 q=41.0 size=     256KiB time=00:00:01.20 bitrate=1747.9kbits/s speed=0.0192x elapsed=0:01:02.63    \nframe=   63 fps=1.0 q=41.0 size=     256KiB time=00:00:01.22 bitrate=1719.3kbits/s speed=0.0193x elapsed=0:01:03.15    \nframe=   64 fps=1.0 q=33.6 size=     256KiB time=00:00:01.24 bitrate=1691.5kbits/s speed=0.0195x elapsed=0:01:03.66    \nframe=   64 fps=1.0 q=33.6 size=     256KiB time=00:00:01.24 bitrate=1691.5kbits/s speed=0.0193x elapsed=0:01:04.24    \nframe=   65 fps=1.0 q=40.9 size=     256KiB time=00:00:01.26 bitrate=1664.7kbits/s speed=0.0194x elapsed=0:01:04.81    \nframe=   66 fps=1.0 q=42.0 size=     256KiB time=00:00:01.28 bitrate=1638.7kbits/s speed=0.0196x elapsed=0:01:05.32    \nframe=   66 fps=1.0 q=42.0 size=     256KiB time=00:00:01.28 bitrate=1638.7kbits/s speed=0.0194x elapsed=0:01:05.85    \nframe=   68 fps=1.0 q=41.0 size=     256KiB time=00:00:01.32 bitrate=1589.0kbits/s speed=0.0199x elapsed=0:01:06.38    \nframe=   70 fps=1.0 q=40.0 size=     256KiB time=00:00:01.36 bitrate=1542.3kbits/s speed=0.0203x elapsed=0:01:06.90    \nframe=   70 fps=1.0 q=40.0 size=     256KiB time=00:00:01.36 bitrate=1542.3kbits/s speed=0.0202x elapsed=0:01:07.41    \nframe=   70 fps=1.0 q=40.0 size=     256KiB time=00:00:01.36 bitrate=1542.3kbits/s speed=0.02x elapsed=0:01:07.93    \nframe=   71 fps=1.0 q=41.0 size=     256KiB time=00:00:01.38 bitrate=1519.9kbits/s speed=0.0202x elapsed=0:01:08.45    \nframe=   72 fps=1.0 q=40.0 size=     256KiB time=00:00:01.38 bitrate=1519.9kbits/s speed=0.02x elapsed=0:01:08.97    \nframe=   73 fps=1.0 q=40.0 size=     256KiB time=00:00:01.42 bitrate=1477.1kbits/s speed=0.0204x elapsed=0:01:09.55    \nframe=   73 fps=1.0 q=40.0 size=     256KiB time=00:00:01.42 bitrate=1477.1kbits/s speed=0.0203x elapsed=0:01:10.07    \nframe=   75 fps=1.1 q=39.0 size=     256KiB time=00:00:01.46 bitrate=1436.6kbits/s speed=0.0207x elapsed=0:01:10.61    \nframe=   75 fps=1.1 q=39.0 size=     256KiB time=00:00:01.46 bitrate=1436.6kbits/s speed=0.0205x elapsed=0:01:11.17    \nframe=   75 fps=1.0 q=39.0 size=     256KiB time=00:00:01.46 bitrate=1436.6kbits/s speed=0.0204x elapsed=0:01:11.70    \nframe=   76 fps=1.1 q=40.0 size=     256KiB time=00:00:01.48 bitrate=1417.2kbits/s speed=0.0205x elapsed=0:01:12.21    \nframe=   77 fps=1.1 q=40.0 size=     256KiB time=00:00:01.50 bitrate=1398.3kbits/s speed=0.0206x elapsed=0:01:12.72    \nframe=   78 fps=1.1 q=41.0 size=     256KiB time=00:00:01.52 bitrate=1379.9kbits/s speed=0.0208x elapsed=0:01:13.25    \nframe=   80 fps=1.1 q=40.0 size=     256KiB time=00:00:01.56 bitrate=1344.6kbits/s speed=0.0211x elapsed=0:01:13.77    \nframe=   81 fps=1.1 q=41.0 size=     256KiB time=00:00:01.58 bitrate=1327.5kbits/s speed=0.0213x elapsed=0:01:14.29    \nframe=   83 fps=1.1 q=40.0 size=     256KiB time=00:00:01.62 bitrate=1294.8kbits/s speed=0.0216x elapsed=0:01:14.83    \nframe=   84 fps=1.1 q=33.3 size=     256KiB time=00:00:01.64 bitrate=1279.0kbits/s speed=0.0218x elapsed=0:01:15.39    \nframe=   85 fps=1.1 q=39.9 size=     256KiB time=00:00:01.66 bitrate=1263.6kbits/s speed=0.0218x elapsed=0:01:16.01    \nframe=   86 fps=1.1 q=41.0 size=     256KiB time=00:00:01.68 bitrate=1248.5kbits/s speed=0.0219x elapsed=0:01:16.58    \nframe=   86 fps=1.1 q=41.0 size=     256KiB time=00:00:01.68 bitrate=1248.5kbits/s speed=0.0218x elapsed=0:01:17.13    \nframe=   86 fps=1.1 q=41.0 size=     256KiB time=00:00:01.68 bitrate=1248.5kbits/s speed=0.0216x elapsed=0:01:17.73    \nframe=   86 fps=1.1 q=41.0 size=     256KiB time=00:00:01.68 bitrate=1248.5kbits/s speed=0.0214x elapsed=0:01:18.39    \nframe=   86 fps=1.1 q=41.0 size=     256KiB time=00:00:01.68 bitrate=1248.5kbits/s speed=0.0213x elapsed=0:01:18.97    \nframe=   86 fps=1.1 q=41.0 size=     256KiB time=00:00:01.68 bitrate=1248.5kbits/s speed=0.0211x elapsed=0:01:19.64    \nframe=   86 fps=1.1 q=41.0 size=     256KiB time=00:00:01.68 bitrate=1248.5kbits/s speed=0.021x elapsed=0:01:20.18    \nframe=   87 fps=1.1 q=41.0 size=     256KiB time=00:00:01.70 bitrate=1233.8kbits/s speed=0.0211x elapsed=0:01:20.69    \nframe=   87 fps=1.1 q=41.0 size=     256KiB time=00:00:01.70 bitrate=1233.8kbits/s speed=0.0209x elapsed=0:01:21.23    \nframe=   87 fps=1.1 q=41.0 size=     256KiB time=00:00:01.70 bitrate=1233.8kbits/s speed=0.0208x elapsed=0:01:21.77    \nframe=   88 fps=1.1 q=41.0 size=     256KiB time=00:00:01.72 bitrate=1219.5kbits/s speed=0.0209x elapsed=0:01:22.35    \nframe=   88 fps=1.1 q=41.0 size=     256KiB time=00:00:01.72 bitrate=1219.5kbits/s speed=0.0207x elapsed=0:01:22.99    \nframe=   88 fps=1.1 q=41.0 size=     256KiB time=00:00:01.72 bitrate=1219.5kbits/s speed=0.0206x elapsed=0:01:23.52    \nframe=   88 fps=1.0 q=41.0 size=     256KiB time=00:00:01.72 bitrate=1219.5kbits/s speed=0.0205x elapsed=0:01:24.05    \nframe=   88 fps=1.0 q=41.0 size=     256KiB time=00:00:01.72 bitrate=1219.5kbits/s speed=0.0203x elapsed=0:01:24.61    \nframe=   89 fps=1.0 q=33.7 size=     256KiB time=00:00:01.72 bitrate=1219.5kbits/s speed=0.0202x elapsed=0:01:25.21    \nframe=   90 fps=1.0 q=40.0 size=     256KiB time=00:00:01.76 bitrate=1191.8kbits/s speed=0.0205x elapsed=0:01:25.83    \nframe=   91 fps=1.1 q=41.0 size=     256KiB time=00:00:01.76 bitrate=1191.8kbits/s speed=0.0204x elapsed=0:01:26.45    \nframe=   91 fps=1.0 q=41.0 size=     256KiB time=00:00:01.78 bitrate=1178.4kbits/s speed=0.0204x elapsed=0:01:27.06    \nframe=   91 fps=1.0 q=41.0 size=     256KiB time=00:00:01.78 bitrate=1178.4kbits/s speed=0.0203x elapsed=0:01:27.77    \nframe=   92 fps=1.0 q=41.0 size=     256KiB time=00:00:01.80 bitrate=1165.3kbits/s speed=0.0203x elapsed=0:01:28.47    \nframe=   93 fps=1.0 q=33.4 size=     256KiB time=00:00:01.82 bitrate=1152.5kbits/s speed=0.0204x elapsed=0:01:29.03    \nframe=   94 fps=1.0 q=40.0 size=     256KiB time=00:00:01.84 bitrate=1139.9kbits/s speed=0.0205x elapsed=0:01:29.63    \nframe=   94 fps=1.0 q=40.0 size=     256KiB time=00:00:01.84 bitrate=1139.9kbits/s speed=0.0204x elapsed=0:01:30.28    \nframe=   95 fps=1.0 q=41.0 size=     256KiB time=00:00:01.86 bitrate=1127.7kbits/s speed=0.0205x elapsed=0:01:30.93    \nframe=   96 fps=1.0 q=33.5 size=     256KiB time=00:00:01.88 bitrate=1115.7kbits/s speed=0.0205x elapsed=0:01:31.51    \nframe=   96 fps=1.0 q=33.5 size=     256KiB time=00:00:01.88 bitrate=1115.7kbits/s speed=0.0204x elapsed=0:01:32.04    \nframe=   96 fps=1.0 q=33.5 size=     256KiB time=00:00:01.88 bitrate=1115.7kbits/s speed=0.0203x elapsed=0:01:32.70    \nframe=   97 fps=1.0 q=34.0 size=     256KiB time=00:00:01.90 bitrate=1103.9kbits/s speed=0.0204x elapsed=0:01:33.31    \nframe=   98 fps=1.0 q=41.0 size=     256KiB time=00:00:01.92 bitrate=1092.5kbits/s speed=0.0204x elapsed=0:01:33.91    \nframe=   98 fps=1.0 q=41.0 size=     256KiB time=00:00:01.92 bitrate=1092.5kbits/s speed=0.0203x elapsed=0:01:34.54    \nframe=   98 fps=1.0 q=41.0 size=     256KiB time=00:00:01.92 bitrate=1092.5kbits/s speed=0.0202x elapsed=0:01:35.11    \nframe=  100 fps=1.0 q=41.0 size=     256KiB time=00:00:01.96 bitrate=1070.2kbits/s speed=0.0204x elapsed=0:01:35.85    \nframe=  102 fps=1.1 q=40.2 size=     256KiB time=00:00:02.00 bitrate=1048.8kbits/s speed=0.0207x elapsed=0:01:36.46    \nframe=  102 fps=1.1 q=40.2 size=     256KiB time=00:00:02.00 bitrate=1048.8kbits/s speed=0.0206x elapsed=0:01:37.07    \nframe=  102 fps=1.0 q=40.2 size=     256KiB time=00:00:02.00 bitrate=1048.8kbits/s speed=0.0204x elapsed=0:01:37.81    \nframe=  102 fps=1.0 q=40.2 size=     256KiB time=00:00:02.00 bitrate=1048.8kbits/s speed=0.0203x elapsed=0:01:38.36    \nframe=  102 fps=1.0 q=40.2 size=     256KiB time=00:00:02.00 bitrate=1048.8kbits/s speed=0.0202x elapsed=0:01:38.93    \nframe=  102 fps=1.0 q=40.2 size=     256KiB time=00:00:02.00 bitrate=1048.8kbits/s speed=0.0201x elapsed=0:01:39.54    \nframe=  102 fps=1.0 q=40.2 size=     256KiB time=00:00:02.00 bitrate=1048.8kbits/s speed=0.0199x elapsed=0:01:40.29    \nframe=  102 fps=1.0 q=40.2 size=     256KiB time=00:00:02.00 bitrate=1048.8kbits/s speed=0.0198x elapsed=0:01:40.81    \nframe=  103 fps=1.0 q=42.0 size=     256KiB time=00:00:02.02 bitrate=1038.4kbits/s speed=0.0199x elapsed=0:01:41.41    \nframe=  103 fps=1.0 q=42.0 size=     256KiB time=00:00:02.02 bitrate=1038.4kbits/s speed=0.0198x elapsed=0:01:42.09    \nframe=  104 fps=1.0 q=42.0 size=     256KiB time=00:00:02.04 bitrate=1028.2kbits/s speed=0.0199x elapsed=0:01:42.70    \nframe=  105 fps=1.0 q=41.0 size=     256KiB time=00:00:02.06 bitrate=1018.2kbits/s speed=0.0199x elapsed=0:01:43.28    \nframe=  105 fps=1.0 q=41.0 size=     256KiB time=00:00:02.06 bitrate=1018.2kbits/s speed=0.0198x elapsed=0:01:43.81    \nframe=  105 fps=1.0 q=41.0 size=     256KiB time=00:00:02.06 bitrate=1018.2kbits/s speed=0.0197x elapsed=0:01:44.49    \nframe=  105 fps=1.0 q=41.0 size=     256KiB time=00:00:02.06 bitrate=1018.2kbits/s speed=0.0196x elapsed=0:01:45.09    \nframe=  107 fps=1.0 q=39.7 size=     256KiB time=00:00:02.10 bitrate= 998.8kbits/s speed=0.0199x elapsed=0:01:45.61    \nframe=  107 fps=1.0 q=39.7 size=     256KiB time=00:00:02.10 bitrate= 998.8kbits/s speed=0.0198x elapsed=0:01:46.27    \nframe=  107 fps=1.0 q=39.7 size=     256KiB time=00:00:02.10 bitrate= 998.8kbits/s speed=0.0196x elapsed=0:01:46.89    \nframe=  107 fps=1.0 q=39.7 size=     256KiB time=00:00:02.10 bitrate= 998.8kbits/s speed=0.0195x elapsed=0:01:47.45    \nframe=  107 fps=1.0 q=39.7 size=     256KiB time=00:00:02.10 bitrate= 998.8kbits/s speed=0.0194x elapsed=0:01:48.04    \nframe=  107 fps=1.0 q=39.7 size=     256KiB time=00:00:02.10 bitrate= 998.8kbits/s speed=0.0193x elapsed=0:01:48.59    \nframe=  108 fps=1.0 q=42.0 size=     256KiB time=00:00:02.12 bitrate= 989.4kbits/s speed=0.0194x elapsed=0:01:49.19    \nframe=  109 fps=1.0 q=41.0 size=     256KiB time=00:00:02.14 bitrate= 980.1kbits/s speed=0.0195x elapsed=0:01:49.85    \nframe=  110 fps=1.0 q=41.0 size=     256KiB time=00:00:02.16 bitrate= 971.1kbits/s speed=0.0195x elapsed=0:01:50.52    \nframe=  110 fps=1.0 q=41.0 size=     256KiB time=00:00:02.16 bitrate= 971.1kbits/s speed=0.0194x elapsed=0:01:51.18    \nframe=  112 fps=1.0 q=39.8 size=     256KiB time=00:00:02.20 bitrate= 953.4kbits/s speed=0.0197x elapsed=0:01:51.80    \nframe=  113 fps=1.0 q=41.0 size=     256KiB time=00:00:02.22 bitrate= 944.8kbits/s speed=0.0197x elapsed=0:01:52.40    \nframe=  113 fps=1.0 q=41.0 size=     256KiB time=00:00:02.22 bitrate= 944.8kbits/s speed=0.0197x elapsed=0:01:52.96    \nframe=  113 fps=1.0 q=41.0 size=     256KiB time=00:00:02.22 bitrate= 944.8kbits/s speed=0.0196x elapsed=0:01:53.53    \nframe=  116 fps=1.0 q=32.4 size=     512KiB time=00:00:02.26 bitrate=1856.0kbits/s speed=0.0198x elapsed=0:01:54.15    \nframe=  116 fps=1.0 q=32.4 size=     512KiB time=00:00:02.28 bitrate=1839.8kbits/s speed=0.0199x elapsed=0:01:54.81    \nframe=  116 fps=1.0 q=32.4 size=     512KiB time=00:00:02.28 bitrate=1839.8kbits/s speed=0.0198x elapsed=0:01:55.32    \nframe=  116 fps=1.0 q=32.4 size=     512KiB time=00:00:02.28 bitrate=1839.8kbits/s speed=0.0197x elapsed=0:01:55.89    \nframe=  116 fps=1.0 q=32.4 size=     512KiB time=00:00:02.28 bitrate=1839.8kbits/s speed=0.0196x elapsed=0:01:56.49    \nframe=  116 fps=1.0 q=32.4 size=     512KiB time=00:00:02.28 bitrate=1839.8kbits/s speed=0.0195x elapsed=0:01:57.04    \nframe=  117 fps=1.0 q=39.0 size=     512KiB time=00:00:02.30 bitrate=1823.8kbits/s speed=0.0195x elapsed=0:01:57.68    \nframe=  117 fps=1.0 q=39.0 size=     512KiB time=00:00:02.30 bitrate=1823.8kbits/s speed=0.0194x elapsed=0:01:58.32    \nframe=  117 fps=1.0 q=39.0 size=     512KiB time=00:00:02.30 bitrate=1823.8kbits/s speed=0.0193x elapsed=0:01:58.92    \nframe=  119 fps=1.0 q=39.9 size=     512KiB time=00:00:02.32 bitrate=1808.0kbits/s speed=0.0194x elapsed=0:01:59.56    \nframe=  119 fps=1.0 q=39.9 size=     512KiB time=00:00:02.34 bitrate=1792.6kbits/s speed=0.0195x elapsed=0:02:00.28    \nframe=  119 fps=1.0 q=39.9 size=     512KiB time=00:00:02.34 bitrate=1792.6kbits/s speed=0.0193x elapsed=0:02:01.02    \nframe=  119 fps=1.0 q=39.9 size=     512KiB time=00:00:02.34 bitrate=1792.6kbits/s speed=0.0192x elapsed=0:02:01.69    \nframe=  119 fps=1.0 q=39.9 size=     512KiB time=00:00:02.34 bitrate=1792.6kbits/s speed=0.0191x elapsed=0:02:02.34    \nframe=  119 fps=1.0 q=39.9 size=     512KiB time=00:00:02.34 bitrate=1792.6kbits/s speed=0.019x elapsed=0:02:03.01    \nframe=  119 fps=1.0 q=39.9 size=     512KiB time=00:00:02.34 bitrate=1792.6kbits/s speed=0.0189x elapsed=0:02:03.65    \nframe=  119 fps=1.0 q=39.9 size=     512KiB time=00:00:02.34 bitrate=1792.6kbits/s speed=0.0188x elapsed=0:02:04.40    \nframe=  119 fps=1.0 q=39.9 size=     512KiB time=00:00:02.34 bitrate=1792.6kbits/s speed=0.0187x elapsed=0:02:05.13    \nframe=  119 fps=0.9 q=39.9 size=     512KiB time=00:00:02.34 bitrate=1792.6kbits/s speed=0.0186x elapsed=0:02:05.88    \nframe=  119 fps=0.9 q=39.9 size=     512KiB time=00:00:02.34 bitrate=1792.6kbits/s speed=0.0185x elapsed=0:02:06.53    \nframe=  120 fps=0.9 q=40.0 size=     512KiB time=00:00:02.36 bitrate=1777.4kbits/s speed=0.0186x elapsed=0:02:07.09    \nframe=  120 fps=0.9 q=40.0 size=     512KiB time=00:00:02.36 bitrate=1777.4kbits/s speed=0.0185x elapsed=0:02:07.70    \nframe=  121 fps=0.9 q=32.9 size=     512KiB time=00:00:02.36 bitrate=1777.4kbits/s speed=0.0184x elapsed=0:02:08.22    \nframe=  121 fps=0.9 q=32.9 size=     512KiB time=00:00:02.38 bitrate=1762.5kbits/s speed=0.0185x elapsed=0:02:08.84    \nframe=  123 fps=1.0 q=40.0 size=     512KiB time=00:00:02.42 bitrate=1733.3kbits/s speed=0.0187x elapsed=0:02:09.38    \nframe=  123 fps=0.9 q=40.0 size=     512KiB time=00:00:02.42 bitrate=1733.3kbits/s speed=0.0186x elapsed=0:02:09.95    \nframe=  125 fps=1.0 q=40.0 size=     512KiB time=00:00:02.46 bitrate=1705.1kbits/s speed=0.0188x elapsed=0:02:10.54    \nframe=  125 fps=1.0 q=40.0 size=     512KiB time=00:00:02.46 bitrate=1705.1kbits/s speed=0.0188x elapsed=0:02:11.14    \nframe=  125 fps=0.9 q=40.0 size=     512KiB time=00:00:02.46 bitrate=1705.1kbits/s speed=0.0187x elapsed=0:02:11.83    \nframe=  125 fps=0.9 q=40.0 size=     512KiB time=00:00:02.46 bitrate=1705.1kbits/s speed=0.0186x elapsed=0:02:12.37    \nframe=  125 fps=0.9 q=40.0 size=     512KiB time=00:00:02.46 bitrate=1705.1kbits/s speed=0.0185x elapsed=0:02:12.92    \nframe=  125 fps=0.9 q=40.0 size=     512KiB time=00:00:02.46 bitrate=1705.1kbits/s speed=0.0184x elapsed=0:02:13.53    \nframe=  125 fps=0.9 q=40.0 size=     512KiB time=00:00:02.46 bitrate=1705.1kbits/s speed=0.0183x elapsed=0:02:14.13    \nframe=  126 fps=0.9 q=33.0 size=     512KiB time=00:00:02.48 bitrate=1691.4kbits/s speed=0.0184x elapsed=0:02:14.69    \nframe=  128 fps=0.9 q=41.0 size=     512KiB time=00:00:02.52 bitrate=1664.5kbits/s speed=0.0186x elapsed=0:02:15.27    \nframe=  128 fps=0.9 q=41.0 size=     512KiB time=00:00:02.52 bitrate=1664.5kbits/s speed=0.0186x elapsed=0:02:15.79    \nframe=  129 fps=0.9 q=41.0 size=     512KiB time=00:00:02.54 bitrate=1651.4kbits/s speed=0.0186x elapsed=0:02:16.38    \nframe=  129 fps=0.9 q=41.0 size=     512KiB time=00:00:02.54 bitrate=1651.4kbits/s speed=0.0185x elapsed=0:02:16.96    \nframe=  129 fps=0.9 q=41.0 size=     512KiB time=00:00:02.54 bitrate=1651.4kbits/s speed=0.0185x elapsed=0:02:17.49    \nframe=  129 fps=0.9 q=41.0 size=     512KiB time=00:00:02.54 bitrate=1651.4kbits/s speed=0.0184x elapsed=0:02:18.17    \nframe=  129 fps=0.9 q=41.0 size=     512KiB time=00:00:02.54 bitrate=1651.4kbits/s speed=0.0183x elapsed=0:02:18.77    \nframe=  130 fps=0.9 q=41.0 size=     512KiB time=00:00:02.54 bitrate=1651.4kbits/s speed=0.0182x elapsed=0:02:19.53    \nframe=  132 fps=0.9 q=39.9 size=     512KiB time=00:00:02.60 bitrate=1613.3kbits/s speed=0.0185x elapsed=0:02:20.27    \nframe=  132 fps=0.9 q=39.9 size=     512KiB time=00:00:02.60 bitrate=1613.3kbits/s speed=0.0185x elapsed=0:02:20.82    \nframe=  132 fps=0.9 q=39.9 size=     512KiB time=00:00:02.60 bitrate=1613.3kbits/s speed=0.0184x elapsed=0:02:21.35    \nframe=  132 fps=0.9 q=39.9 size=     512KiB time=00:00:02.60 bitrate=1613.3kbits/s speed=0.0183x elapsed=0:02:21.87    \nframe=  132 fps=0.9 q=39.9 size=     512KiB time=00:00:02.60 bitrate=1613.3kbits/s speed=0.0183x elapsed=0:02:22.42    \nframe=  133 fps=0.9 q=41.0 size=     512KiB time=00:00:02.62 bitrate=1601.0kbits/s speed=0.0183x elapsed=0:02:22.96    \nframe=  133 fps=0.9 q=41.0 size=     512KiB time=00:00:02.62 bitrate=1601.0kbits/s speed=0.0183x elapsed=0:02:23.48    \nframe=  134 fps=0.9 q=39.0 size=     512KiB time=00:00:02.64 bitrate=1588.9kbits/s speed=0.0183x elapsed=0:02:23.99    \nframe=  135 fps=0.9 q=38.9 size=     512KiB time=00:00:02.66 bitrate=1576.9kbits/s speed=0.0184x elapsed=0:02:24.53    \nframe=  136 fps=0.9 q=31.9 size=     512KiB time=00:00:02.68 bitrate=1565.2kbits/s speed=0.0185x elapsed=0:02:25.05    \nframe=  136 fps=0.9 q=31.9 size=     512KiB time=00:00:02.68 bitrate=1565.2kbits/s speed=0.0184x elapsed=0:02:25.63    \nframe=  136 fps=0.9 q=31.9 size=     512KiB time=00:00:02.68 bitrate=1565.2kbits/s speed=0.0183x elapsed=0:02:26.17    \nframe=  136 fps=0.9 q=31.9 size=     512KiB time=00:00:02.68 bitrate=1565.2kbits/s speed=0.0183x elapsed=0:02:26.71    \nframe=  137 fps=0.9 q=37.8 size=     512KiB time=00:00:02.70 bitrate=1553.6kbits/s speed=0.0183x elapsed=0:02:27.23    \nframe=  137 fps=0.9 q=37.8 size=     512KiB time=00:00:02.70 bitrate=1553.6kbits/s speed=0.0183x elapsed=0:02:27.77    \nframe=  137 fps=0.9 q=37.8 size=     512KiB time=00:00:02.70 bitrate=1553.6kbits/s speed=0.0182x elapsed=0:02:28.29    \nframe=  137 fps=0.9 q=37.8 size=     512KiB time=00:00:02.70 bitrate=1553.6kbits/s speed=0.0181x elapsed=0:02:28.81    \nframe=  138 fps=0.9 q=39.0 size=     512KiB time=00:00:02.72 bitrate=1542.2kbits/s speed=0.0182x elapsed=0:02:29.35    \nframe=  139 fps=0.9 q=39.0 size=     512KiB time=00:00:02.74 bitrate=1530.9kbits/s speed=0.0183x elapsed=0:02:29.87    \nframe=  139 fps=0.9 q=39.0 size=     512KiB time=00:00:02.74 bitrate=1530.9kbits/s speed=0.0182x elapsed=0:02:30.39    \nframe=  139 fps=0.9 q=39.0 size=     512KiB time=00:00:02.74 bitrate=1530.9kbits/s speed=0.0182x elapsed=0:02:30.91    \nframe=  139 fps=0.9 q=39.0 size=     512KiB time=00:00:02.74 bitrate=1530.9kbits/s speed=0.0181x elapsed=0:02:31.45    \nframe=  140 fps=0.9 q=31.6 size=     512KiB time=00:00:02.74 bitrate=1530.9kbits/s speed=0.018x elapsed=0:02:31.99    \nframe=  140 fps=0.9 q=31.6 size=     512KiB time=00:00:02.76 bitrate=1519.8kbits/s speed=0.0181x elapsed=0:02:32.59    \nframe=  141 fps=0.9 q=37.8 size=     512KiB time=00:00:02.78 bitrate=1508.9kbits/s speed=0.0182x elapsed=0:02:33.10    \nframe=  141 fps=0.9 q=37.8 size=     512KiB time=00:00:02.78 bitrate=1508.9kbits/s speed=0.0181x elapsed=0:02:33.62    \nframe=  141 fps=0.9 q=37.8 size=     512KiB time=00:00:02.78 bitrate=1508.9kbits/s speed=0.018x elapsed=0:02:34.16    \nframe=  141 fps=0.9 q=37.8 size=     512KiB time=00:00:02.78 bitrate=1508.9kbits/s speed=0.018x elapsed=0:02:34.68    \nframe=  142 fps=0.9 q=39.0 size=     512KiB time=00:00:02.80 bitrate=1498.1kbits/s speed=0.018x elapsed=0:02:35.20    \nframe=  142 fps=0.9 q=39.0 size=     512KiB time=00:00:02.80 bitrate=1498.1kbits/s speed=0.018x elapsed=0:02:35.70    \nframe=  142 fps=0.9 q=39.0 size=     512KiB time=00:00:02.80 bitrate=1498.1kbits/s speed=0.0179x elapsed=0:02:36.23    \nframe=  142 fps=0.9 q=39.0 size=     512KiB time=00:00:02.80 bitrate=1498.1kbits/s speed=0.0179x elapsed=0:02:36.78    \nframe=  142 fps=0.9 q=39.0 size=     512KiB time=00:00:02.80 bitrate=1498.1kbits/s speed=0.0178x elapsed=0:02:37.37    \nframe=  143 fps=0.9 q=39.0 size=     512KiB time=00:00:02.82 bitrate=1487.5kbits/s speed=0.0179x elapsed=0:02:37.90    \nframe=  144 fps=0.9 q=38.0 size=     512KiB time=00:00:02.84 bitrate=1477.0kbits/s speed=0.0179x elapsed=0:02:38.44    \nframe=  144 fps=0.9 q=38.0 size=     512KiB time=00:00:02.84 bitrate=1477.0kbits/s speed=0.0179x elapsed=0:02:38.96    \nframe=  144 fps=0.9 q=38.0 size=     512KiB time=00:00:02.84 bitrate=1477.0kbits/s speed=0.0178x elapsed=0:02:39.53    \nframe=  144 fps=0.9 q=38.0 size=     512KiB time=00:00:02.84 bitrate=1477.0kbits/s speed=0.0177x elapsed=0:02:40.10    \nframe=  145 fps=0.9 q=31.5 size=     512KiB time=00:00:02.86 bitrate=1466.7kbits/s speed=0.0178x elapsed=0:02:40.62    \nframe=  146 fps=0.9 q=37.1 size=     512KiB time=00:00:02.88 bitrate=1456.5kbits/s speed=0.0179x elapsed=0:02:41.14    \nframe=  146 fps=0.9 q=37.1 size=     512KiB time=00:00:02.88 bitrate=1456.5kbits/s speed=0.0178x elapsed=0:02:41.66    \nframe=  146 fps=0.9 q=37.1 size=     512KiB time=00:00:02.88 bitrate=1456.5kbits/s speed=0.0178x elapsed=0:02:42.18    \nframe=  146 fps=0.9 q=37.1 size=     512KiB time=00:00:02.88 bitrate=1456.5kbits/s speed=0.0177x elapsed=0:02:42.74    \nframe=  148 fps=0.9 q=39.0 size=     512KiB time=00:00:02.92 bitrate=1436.5kbits/s speed=0.0179x elapsed=0:02:43.26    \nframe=  149 fps=0.9 q=31.9 size=     512KiB time=00:00:02.94 bitrate=1426.8kbits/s speed=0.018x elapsed=0:02:43.78    \nframe=  149 fps=0.9 q=31.9 size=     512KiB time=00:00:02.94 bitrate=1426.8kbits/s speed=0.0179x elapsed=0:02:44.31    \nframe=  149 fps=0.9 q=31.9 size=     512KiB time=00:00:02.94 bitrate=1426.8kbits/s speed=0.0178x elapsed=0:02:44.84    \nframe=  149 fps=0.9 q=31.9 size=     512KiB time=00:00:02.94 bitrate=1426.8kbits/s speed=0.0178x elapsed=0:02:45.39    \nframe=  150 fps=0.9 q=37.7 size=     512KiB time=00:00:02.96 bitrate=1417.1kbits/s speed=0.0178x elapsed=0:02:45.91    \nframe=  151 fps=0.9 q=39.0 size=     512KiB time=00:00:02.98 bitrate=1407.6kbits/s speed=0.0179x elapsed=0:02:46.43    \nframe=  151 fps=0.9 q=39.0 size=     512KiB time=00:00:02.98 bitrate=1407.6kbits/s speed=0.0178x elapsed=0:02:46.95    \nframe=  151 fps=0.9 q=39.0 size=     512KiB time=00:00:02.98 bitrate=1407.6kbits/s speed=0.0178x elapsed=0:02:47.51    \nframe=  152 fps=0.9 q=39.0 size=     512KiB time=00:00:03.00 bitrate=1398.2kbits/s speed=0.0179x elapsed=0:02:48.06    \nframe=  153 fps=0.9 q=39.0 size=     512KiB time=00:00:03.02 bitrate=1389.0kbits/s speed=0.0179x elapsed=0:02:48.58    \nframe=  153 fps=0.9 q=39.0 size=     512KiB time=00:00:03.02 bitrate=1389.0kbits/s speed=0.0179x elapsed=0:02:49.12    \nframe=  153 fps=0.9 q=39.0 size=     512KiB time=00:00:03.02 bitrate=1389.0kbits/s speed=0.0178x elapsed=0:02:49.66    \nframe=  154 fps=0.9 q=32.1 size=     512KiB time=00:00:03.04 bitrate=1379.8kbits/s speed=0.0179x elapsed=0:02:50.19    \nframe=  154 fps=0.9 q=32.1 size=     512KiB time=00:00:03.04 bitrate=1379.8kbits/s speed=0.0178x elapsed=0:02:50.73    \nframe=  155 fps=0.9 q=32.8 size=     512KiB time=00:00:03.06 bitrate=1370.8kbits/s speed=0.0179x elapsed=0:02:51.25    \nframe=  155 fps=0.9 q=32.8 size=     512KiB time=00:00:03.06 bitrate=1370.8kbits/s speed=0.0178x elapsed=0:02:51.77    \nframe=  155 fps=0.9 q=32.8 size=     512KiB time=00:00:03.06 bitrate=1370.8kbits/s speed=0.0178x elapsed=0:02:52.29    \nframe=  157 fps=0.9 q=39.0 size=     512KiB time=00:00:03.10 bitrate=1353.1kbits/s speed=0.0179x elapsed=0:02:52.80    \nframe=  157 fps=0.9 q=39.0 size=     512KiB time=00:00:03.10 bitrate=1353.1kbits/s speed=0.0179x elapsed=0:02:53.32    \nframe=  157 fps=0.9 q=39.0 size=     512KiB time=00:00:03.10 bitrate=1353.1kbits/s speed=0.0178x elapsed=0:02:53.84    \nframe=  157 fps=0.9 q=39.0 size=     512KiB time=00:00:03.10 bitrate=1353.1kbits/s speed=0.0178x elapsed=0:02:54.36    \nframe=  157 fps=0.9 q=39.0 size=     512KiB time=00:00:03.10 bitrate=1353.1kbits/s speed=0.0177x elapsed=0:02:54.91    \nframe=  158 fps=0.9 q=39.0 size=     512KiB time=00:00:03.12 bitrate=1344.4kbits/s speed=0.0178x elapsed=0:02:55.42    \nframe=  158 fps=0.9 q=39.0 size=     512KiB time=00:00:03.12 bitrate=1344.4kbits/s speed=0.0177x elapsed=0:02:55.94    \nframe=  158 fps=0.9 q=39.0 size=     512KiB time=00:00:03.12 bitrate=1344.4kbits/s speed=0.0177x elapsed=0:02:56.48    \nframe=  159 fps=0.9 q=31.7 size=     512KiB time=00:00:03.14 bitrate=1335.9kbits/s speed=0.0177x elapsed=0:02:57.02    \nframe=  159 fps=0.9 q=31.7 size=     512KiB time=00:00:03.14 bitrate=1335.9kbits/s speed=0.0177x elapsed=0:02:57.56    \nframe=  159 fps=0.9 q=31.7 size=     512KiB time=00:00:03.14 bitrate=1335.9kbits/s speed=0.0176x elapsed=0:02:58.10    \nframe=  160 fps=0.9 q=38.7 size=     512KiB time=00:00:03.16 bitrate=1327.4kbits/s speed=0.0177x elapsed=0:02:58.62    \nframe=  161 fps=0.9 q=39.9 size=     512KiB time=00:00:03.18 bitrate=1319.1kbits/s speed=0.0178x elapsed=0:02:59.14    \nframe=  161 fps=0.9 q=39.9 size=     512KiB time=00:00:03.18 bitrate=1319.1kbits/s speed=0.0177x elapsed=0:02:59.66    \nframe=  162 fps=0.9 q=39.0 size=     512KiB time=00:00:03.20 bitrate=1310.8kbits/s speed=0.0178x elapsed=0:03:00.19    \nframe=  163 fps=0.9 q=39.0 size=     512KiB time=00:00:03.22 bitrate=1302.7kbits/s speed=0.0178x elapsed=0:03:00.70    \nframe=  164 fps=0.9 q=31.5 size=     512KiB time=00:00:03.24 bitrate=1294.6kbits/s speed=0.0179x elapsed=0:03:01.23    \nframe=  164 fps=0.9 q=31.5 size=     512KiB time=00:00:03.24 bitrate=1294.6kbits/s speed=0.0178x elapsed=0:03:01.77    \nframe=  164 fps=0.9 q=31.5 size=     512KiB time=00:00:03.24 bitrate=1294.6kbits/s speed=0.0178x elapsed=0:03:02.30    \nframe=  164 fps=0.9 q=31.5 size=     512KiB time=00:00:03.24 bitrate=1294.6kbits/s speed=0.0177x elapsed=0:03:02.81    \nframe=  165 fps=0.9 q=37.7 size=     512KiB time=00:00:03.26 bitrate=1286.7kbits/s speed=0.0178x elapsed=0:03:03.35    \nframe=  165 fps=0.9 q=37.7 size=     512KiB time=00:00:03.26 bitrate=1286.7kbits/s speed=0.0177x elapsed=0:03:03.87    \nframe=  165 fps=0.9 q=37.7 size=     512KiB time=00:00:03.26 bitrate=1286.7kbits/s speed=0.0177x elapsed=0:03:04.38    \nframe=  166 fps=0.9 q=39.0 size=     512KiB time=00:00:03.28 bitrate=1278.9kbits/s speed=0.0177x elapsed=0:03:04.91    \nframe=  166 fps=0.9 q=39.0 size=     512KiB time=00:00:03.28 bitrate=1278.9kbits/s speed=0.0177x elapsed=0:03:05.47    \nframe=  166 fps=0.9 q=39.0 size=     512KiB time=00:00:03.28 bitrate=1278.9kbits/s speed=0.0176x elapsed=0:03:05.99    \nframe=  166 fps=0.9 q=39.0 size=     512KiB time=00:00:03.28 bitrate=1278.9kbits/s speed=0.0176x elapsed=0:03:06.54    \nframe=  167 fps=0.9 q=39.0 size=     512KiB time=00:00:03.30 bitrate=1271.1kbits/s speed=0.0176x elapsed=0:03:07.11    \nframe=  167 fps=0.9 q=39.0 size=     512KiB time=00:00:03.30 bitrate=1271.1kbits/s speed=0.0176x elapsed=0:03:07.66    \nframe=  167 fps=0.9 q=39.0 size=     512KiB time=00:00:03.30 bitrate=1271.1kbits/s speed=0.0175x elapsed=0:03:08.20    \nframe=  167 fps=0.9 q=39.0 size=     512KiB time=00:00:03.30 bitrate=1271.1kbits/s speed=0.0175x elapsed=0:03:08.72    \nframe=  167 fps=0.9 q=39.0 size=     512KiB time=00:00:03.30 bitrate=1271.1kbits/s speed=0.0174x elapsed=0:03:09.22    \nframe=  167 fps=0.9 q=39.0 size=     512KiB time=00:00:03.30 bitrate=1271.1kbits/s speed=0.0174x elapsed=0:03:09.74    \nframe=  167 fps=0.9 q=39.0 size=     512KiB time=00:00:03.30 bitrate=1271.1kbits/s speed=0.0173x elapsed=0:03:10.28    \nframe=  167 fps=0.9 q=39.0 size=     512KiB time=00:00:03.30 bitrate=1271.1kbits/s speed=0.0173x elapsed=0:03:10.80    \nframe=  167 fps=0.9 q=39.0 size=     512KiB time=00:00:03.30 bitrate=1271.1kbits/s speed=0.0172x elapsed=0:03:11.34    \nframe=  167 fps=0.9 q=39.0 size=     512KiB time=00:00:03.30 bitrate=1271.1kbits/s speed=0.0172x elapsed=0:03:11.86    \nframe=  168 fps=0.9 q=31.1 size=     512KiB time=00:00:03.32 bitrate=1263.5kbits/s speed=0.0173x elapsed=0:03:12.39    \nframe=  169 fps=0.9 q=37.7 size=     768KiB time=00:00:03.34 bitrate=1883.8kbits/s speed=0.0173x elapsed=0:03:12.91    \nframe=  170 fps=0.9 q=39.0 size=     768KiB time=00:00:03.36 bitrate=1872.6kbits/s speed=0.0174x elapsed=0:03:13.44    \nframe=  170 fps=0.9 q=39.0 size=     768KiB time=00:00:03.36 bitrate=1872.6kbits/s speed=0.0173x elapsed=0:03:13.96    \nframe=  172 fps=0.9 q=39.0 size=     768KiB time=00:00:03.40 bitrate=1850.5kbits/s speed=0.0175x elapsed=0:03:14.48    \nframe=  172 fps=0.9 q=39.0 size=     768KiB time=00:00:03.40 bitrate=1850.5kbits/s speed=0.0174x elapsed=0:03:15.02    \nframe=  172 fps=0.9 q=39.0 size=     768KiB time=00:00:03.40 bitrate=1850.5kbits/s speed=0.0174x elapsed=0:03:15.55    \nframe=  172 fps=0.9 q=39.0 size=     768KiB time=00:00:03.40 bitrate=1850.5kbits/s speed=0.0173x elapsed=0:03:16.06    \nframe=  173 fps=0.9 q=31.6 size=     768KiB time=00:00:03.42 bitrate=1839.7kbits/s speed=0.0174x elapsed=0:03:16.59    \nframe=  174 fps=0.9 q=37.8 size=     768KiB time=00:00:03.44 bitrate=1829.0kbits/s speed=0.0175x elapsed=0:03:17.11    \nframe=  176 fps=0.9 q=39.0 size=     768KiB time=00:00:03.48 bitrate=1808.0kbits/s speed=0.0176x elapsed=0:03:17.63    \nframe=  176 fps=0.9 q=39.0 size=     768KiB time=00:00:03.48 bitrate=1808.0kbits/s speed=0.0176x elapsed=0:03:18.15    \nframe=  178 fps=0.9 q=37.4 size=     768KiB time=00:00:03.52 bitrate=1787.4kbits/s speed=0.0177x elapsed=0:03:18.66    \nframe=  179 fps=0.9 q=38.9 size=     768KiB time=00:00:03.54 bitrate=1777.3kbits/s speed=0.0178x elapsed=0:03:19.18    \nframe=  179 fps=0.9 q=38.9 size=     768KiB time=00:00:03.54 bitrate=1777.3kbits/s speed=0.0177x elapsed=0:03:19.70    \nframe=  180 fps=0.9 q=39.0 size=     768KiB time=00:00:03.56 bitrate=1767.4kbits/s speed=0.0178x elapsed=0:03:20.22    \nframe=  180 fps=0.9 q=39.0 size=     768KiB time=00:00:03.56 bitrate=1767.4kbits/s speed=0.0177x elapsed=0:03:20.74    \nframe=  181 fps=0.9 q=39.0 size=     768KiB time=00:00:03.58 bitrate=1757.5kbits/s speed=0.0178x elapsed=0:03:21.26    \nframe=  182 fps=0.9 q=31.6 size=     768KiB time=00:00:03.60 bitrate=1747.7kbits/s speed=0.0178x elapsed=0:03:21.79    \nframe=  183 fps=0.9 q=37.7 size=     768KiB time=00:00:03.62 bitrate=1738.1kbits/s speed=0.0179x elapsed=0:03:22.31    \nframe=  183 fps=0.9 q=37.7 size=     768KiB time=00:00:03.62 bitrate=1738.1kbits/s speed=0.0178x elapsed=0:03:22.81    \nframe=  184 fps=0.9 q=39.0 size=     768KiB time=00:00:03.64 bitrate=1728.5kbits/s speed=0.0179x elapsed=0:03:23.33    \nframe=  185 fps=0.9 q=40.0 size=     768KiB time=00:00:03.66 bitrate=1719.1kbits/s speed=0.018x elapsed=0:03:23.85    \nframe=  185 fps=0.9 q=40.0 size=     768KiB time=00:00:03.66 bitrate=1719.1kbits/s speed=0.0179x elapsed=0:03:24.37    \nframe=  185 fps=0.9 q=40.0 size=     768KiB time=00:00:03.66 bitrate=1719.1kbits/s speed=0.0179x elapsed=0:03:24.88    \nframe=  185 fps=0.9 q=40.0 size=     768KiB time=00:00:03.66 bitrate=1719.1kbits/s speed=0.0178x elapsed=0:03:25.41    \nframe=  185 fps=0.9 q=40.0 size=     768KiB time=00:00:03.66 bitrate=1719.1kbits/s speed=0.0178x elapsed=0:03:25.97    \nframe=  185 fps=0.9 q=40.0 size=     768KiB time=00:00:03.66 bitrate=1719.1kbits/s speed=0.0177x elapsed=0:03:26.50    \nframe=  185 fps=0.9 q=40.0 size=     768KiB time=00:00:03.66 bitrate=1719.1kbits/s speed=0.0177x elapsed=0:03:27.04    \nframe=  185 fps=0.9 q=40.0 size=     768KiB time=00:00:03.66 bitrate=1719.1kbits/s speed=0.0176x elapsed=0:03:27.59    \nframe=  185 fps=0.9 q=40.0 size=     768KiB time=00:00:03.66 bitrate=1719.1kbits/s speed=0.0176x elapsed=0:03:28.16    \nframe=  186 fps=0.9 q=32.2 size=     768KiB time=00:00:03.68 bitrate=1709.7kbits/s speed=0.0176x elapsed=0:03:28.71    \nframe=  187 fps=0.9 q=38.4 size=     768KiB time=00:00:03.70 bitrate=1700.5kbits/s speed=0.0177x elapsed=0:03:29.23    \nframe=  187 fps=0.9 q=38.4 size=     768KiB time=00:00:03.70 bitrate=1700.5kbits/s speed=0.0176x elapsed=0:03:29.75    \nframe=  187 fps=0.9 q=38.4 size=     768KiB time=00:00:03.70 bitrate=1700.5kbits/s speed=0.0176x elapsed=0:03:30.28    \nframe=  187 fps=0.9 q=38.4 size=     768KiB time=00:00:03.70 bitrate=1700.5kbits/s speed=0.0176x elapsed=0:03:30.80    \nframe=  188 fps=0.9 q=39.9 size=     768KiB time=00:00:03.72 bitrate=1691.3kbits/s speed=0.0176x elapsed=0:03:31.32    \nframe=  190 fps=0.9 q=40.0 size=     768KiB time=00:00:03.76 bitrate=1673.4kbits/s speed=0.0177x elapsed=0:03:31.84    \nframe=  190 fps=0.9 q=40.0 size=     768KiB time=00:00:03.76 bitrate=1673.4kbits/s speed=0.0177x elapsed=0:03:32.36    \nframe=  190 fps=0.9 q=40.0 size=     768KiB time=00:00:03.76 bitrate=1673.4kbits/s speed=0.0177x elapsed=0:03:32.88    \nframe=  190 fps=0.9 q=40.0 size=     768KiB time=00:00:03.76 bitrate=1673.4kbits/s speed=0.0176x elapsed=0:03:33.42    \nframe=  191 fps=0.9 q=32.5 size=     768KiB time=00:00:03.78 bitrate=1664.5kbits/s speed=0.0177x elapsed=0:03:33.92    \nframe=  191 fps=0.9 q=32.5 size=     768KiB time=00:00:03.78 bitrate=1664.5kbits/s speed=0.0176x elapsed=0:03:34.44    \nframe=  191 fps=0.9 q=32.5 size=     768KiB time=00:00:03.78 bitrate=1664.5kbits/s speed=0.0176x elapsed=0:03:34.98    \nframe=  192 fps=0.9 q=38.8 size=     768KiB time=00:00:03.80 bitrate=1655.7kbits/s speed=0.0176x elapsed=0:03:35.50    \nframe=  192 fps=0.9 q=38.8 size=     768KiB time=00:00:03.80 bitrate=1655.7kbits/s speed=0.0176x elapsed=0:03:36.02    \nframe=  193 fps=0.9 q=40.0 size=     768KiB time=00:00:03.82 bitrate=1647.1kbits/s speed=0.0176x elapsed=0:03:36.55    \nframe=  193 fps=0.9 q=40.0 size=     768KiB time=00:00:03.82 bitrate=1647.1kbits/s speed=0.0176x elapsed=0:03:37.08    \nframe=  193 fps=0.9 q=40.0 size=     768KiB time=00:00:03.82 bitrate=1647.1kbits/s speed=0.0176x elapsed=0:03:37.60    \nframe=  194 fps=0.9 q=39.0 size=     768KiB time=00:00:03.84 bitrate=1638.5kbits/s speed=0.0176x elapsed=0:03:38.14    \nframe=  194 fps=0.9 q=39.0 size=     768KiB time=00:00:03.84 bitrate=1638.5kbits/s speed=0.0176x elapsed=0:03:38.66    \nframe=  194 fps=0.9 q=39.0 size=     768KiB time=00:00:03.84 bitrate=1638.5kbits/s speed=0.0175x elapsed=0:03:39.18    \nframe=  194 fps=0.9 q=39.0 size=     768KiB time=00:00:03.84 bitrate=1638.5kbits/s speed=0.0175x elapsed=0:03:39.71    \nframe=  195 fps=0.9 q=39.0 size=     768KiB time=00:00:03.86 bitrate=1630.0kbits/s speed=0.0175x elapsed=0:03:40.22    \nframe=  195 fps=0.9 q=39.0 size=     768KiB time=00:00:03.86 bitrate=1630.0kbits/s speed=0.0175x elapsed=0:03:40.76    \nframe=  195 fps=0.9 q=39.0 size=     768KiB time=00:00:03.86 bitrate=1630.0kbits/s speed=0.0174x elapsed=0:03:41.27    \nframe=  195 fps=0.9 q=39.0 size=     768KiB time=00:00:03.86 bitrate=1630.0kbits/s speed=0.0174x elapsed=0:03:41.82    \nframe=  195 fps=0.9 q=39.0 size=     768KiB time=00:00:03.86 bitrate=1630.0kbits/s speed=0.0174x elapsed=0:03:42.34    \nframe=  195 fps=0.9 q=39.0 size=     768KiB time=00:00:03.86 bitrate=1630.0kbits/s speed=0.0173x elapsed=0:03:42.88    \nframe=  195 fps=0.9 q=39.0 size=     768KiB time=00:00:03.86 bitrate=1630.0kbits/s speed=0.0173x elapsed=0:03:43.40    \nframe=  195 fps=0.9 q=39.0 size=     768KiB time=00:00:03.86 bitrate=1630.0kbits/s speed=0.0172x elapsed=0:03:43.94    \nframe=  196 fps=0.9 q=32.4 size=     768KiB time=00:00:03.88 bitrate=1621.6kbits/s speed=0.0173x elapsed=0:03:44.46    \nframe=  196 fps=0.9 q=32.4 size=     768KiB time=00:00:03.88 bitrate=1621.6kbits/s speed=0.0172x elapsed=0:03:45.01    \nframe=  196 fps=0.9 q=32.4 size=     768KiB time=00:00:03.88 bitrate=1621.6kbits/s speed=0.0172x elapsed=0:03:45.52    \nframe=  196 fps=0.9 q=32.4 size=     768KiB time=00:00:03.88 bitrate=1621.6kbits/s speed=0.0172x elapsed=0:03:46.07    \nframe=  196 fps=0.9 q=32.4 size=     768KiB time=00:00:03.88 bitrate=1621.6kbits/s speed=0.0171x elapsed=0:03:46.58    \nframe=  196 fps=0.9 q=32.4 size=     768KiB time=00:00:03.88 bitrate=1621.6kbits/s speed=0.0171x elapsed=0:03:47.10    \nframe=  196 fps=0.9 q=32.4 size=     768KiB time=00:00:03.88 bitrate=1621.6kbits/s speed=0.017x elapsed=0:03:47.64    \nframe=  197 fps=0.9 q=38.4 size=     768KiB time=00:00:03.90 bitrate=1613.3kbits/s speed=0.0171x elapsed=0:03:48.17    \nframe=  197 fps=0.9 q=38.4 size=     768KiB time=00:00:03.90 bitrate=1613.3kbits/s speed=0.0171x elapsed=0:03:48.69    \nframe=  197 fps=0.9 q=38.4 size=     768KiB time=00:00:03.90 bitrate=1613.3kbits/s speed=0.017x elapsed=0:03:49.23    \nframe=  197 fps=0.9 q=38.4 size=     768KiB time=00:00:03.90 bitrate=1613.3kbits/s speed=0.017x elapsed=0:03:49.75    \nframe=  198 fps=0.9 q=40.0 size=     768KiB time=00:00:03.92 bitrate=1605.1kbits/s speed=0.017x elapsed=0:03:50.27    \nframe=  199 fps=0.9 q=40.0 size=     768KiB time=00:00:03.94 bitrate=1596.9kbits/s speed=0.0171x elapsed=0:03:50.79    \nframe=  199 fps=0.9 q=40.0 size=     768KiB time=00:00:03.94 bitrate=1596.9kbits/s speed=0.017x elapsed=0:03:51.35    \nframe=  199 fps=0.9 q=40.0 size=     768KiB time=00:00:03.94 bitrate=1596.9kbits/s speed=0.017x elapsed=0:03:51.87    \nframe=  199 fps=0.9 q=40.0 size=     768KiB time=00:00:03.94 bitrate=1596.9kbits/s speed=0.017x elapsed=0:03:52.39    \nframe=  199 fps=0.9 q=40.0 size=     768KiB time=00:00:03.94 bitrate=1596.9kbits/s speed=0.0169x elapsed=0:03:52.91    \nframe=  200 fps=0.9 q=40.0 size=     768KiB time=00:00:03.96 bitrate=1588.8kbits/s speed=0.017x elapsed=0:03:53.43    \nframe=  200 fps=0.9 q=40.0 size=     768KiB time=00:00:03.96 bitrate=1588.8kbits/s speed=0.0169x elapsed=0:03:53.96    \nframe=  200 fps=0.9 q=40.0 size=     768KiB time=00:00:03.96 bitrate=1588.8kbits/s speed=0.0169x elapsed=0:03:54.48    \nframe=  201 fps=0.9 q=34.4 size=     768KiB time=00:00:03.98 bitrate=1580.9kbits/s speed=0.0169x elapsed=0:03:55.02    \nframe=  201 fps=0.9 q=34.4 size=     768KiB time=00:00:03.98 bitrate=1580.9kbits/s speed=0.0169x elapsed=0:03:55.55    \nframe=  201 fps=0.9 q=34.4 size=     768KiB time=00:00:03.98 bitrate=1580.9kbits/s speed=0.0169x elapsed=0:03:56.07    \nframe=  202 fps=0.9 q=40.0 size=     768KiB time=00:00:04.00 bitrate=1573.0kbits/s speed=0.0169x elapsed=0:03:56.59    \nframe=  202 fps=0.9 q=40.0 size=     768KiB time=00:00:04.00 bitrate=1573.0kbits/s speed=0.0169x elapsed=0:03:57.15    \nframe=  204 fps=0.9 q=42.0 size=     768KiB time=00:00:04.04 bitrate=1557.4kbits/s speed=0.017x elapsed=0:03:57.67    \nframe=  204 fps=0.9 q=42.0 size=     768KiB time=00:00:04.04 bitrate=1557.4kbits/s speed=0.017x elapsed=0:03:58.22    \nframe=  204 fps=0.9 q=42.0 size=     768KiB time=00:00:04.04 bitrate=1557.4kbits/s speed=0.0169x elapsed=0:03:58.78    \nframe=  204 fps=0.9 q=42.0 size=     768KiB time=00:00:04.04 bitrate=1557.4kbits/s speed=0.0169x elapsed=0:03:59.31    \nframe=  204 fps=0.9 q=42.0 size=     768KiB time=00:00:04.04 bitrate=1557.4kbits/s speed=0.0168x elapsed=0:03:59.85    \nframe=  204 fps=0.8 q=42.0 size=     768KiB time=00:00:04.04 bitrate=1557.4kbits/s speed=0.0168x elapsed=0:04:00.37    \nframe=  204 fps=0.8 q=42.0 size=     768KiB time=00:00:04.04 bitrate=1557.4kbits/s speed=0.0168x elapsed=0:04:00.88    \nframe=  204 fps=0.8 q=42.0 size=     768KiB time=00:00:04.04 bitrate=1557.4kbits/s speed=0.0167x elapsed=0:04:01.40    \nframe=  205 fps=0.8 q=34.3 size=     768KiB time=00:00:04.06 bitrate=1549.7kbits/s speed=0.0168x elapsed=0:04:01.92    \nframe=  206 fps=0.8 q=40.8 size=     768KiB time=00:00:04.08 bitrate=1542.1kbits/s speed=0.0168x elapsed=0:04:02.45    \nframe=  208 fps=0.9 q=42.0 size=     768KiB time=00:00:04.12 bitrate=1527.1kbits/s speed=0.017x elapsed=0:04:02.98    \nframe=  208 fps=0.9 q=42.0 size=     768KiB time=00:00:04.12 bitrate=1527.1kbits/s speed=0.0169x elapsed=0:04:03.50    \nframe=  209 fps=0.9 q=42.0 size=     768KiB time=00:00:04.14 bitrate=1519.8kbits/s speed=0.017x elapsed=0:04:04.04    \nframe=  209 fps=0.9 q=42.0 size=     768KiB time=00:00:04.14 bitrate=1519.8kbits/s speed=0.0169x elapsed=0:04:04.58    \nframe=  209 fps=0.9 q=42.0 size=     768KiB time=00:00:04.14 bitrate=1519.8kbits/s speed=0.0169x elapsed=0:04:05.10    \nframe=  209 fps=0.9 q=42.0 size=     768KiB time=00:00:04.14 bitrate=1519.8kbits/s speed=0.0169x elapsed=0:04:05.62    \nframe=  210 fps=0.9 q=34.7 size=     768KiB time=00:00:04.16 bitrate=1512.5kbits/s speed=0.0169x elapsed=0:04:06.14    \nframe=  210 fps=0.9 q=34.7 size=     768KiB time=00:00:04.16 bitrate=1512.5kbits/s speed=0.0169x elapsed=0:04:06.68    \nframe=  210 fps=0.8 q=34.7 size=     768KiB time=00:00:04.16 bitrate=1512.5kbits/s speed=0.0168x elapsed=0:04:07.23    \nframe=  210 fps=0.8 q=34.7 size=     768KiB time=00:00:04.16 bitrate=1512.5kbits/s speed=0.0168x elapsed=0:04:07.76    \nframe=  210 fps=0.8 q=34.7 size=     768KiB time=00:00:04.16 bitrate=1512.5kbits/s speed=0.0168x elapsed=0:04:08.29    \nframe=  211 fps=0.8 q=41.9 size=     768KiB time=00:00:04.18 bitrate=1505.2kbits/s speed=0.0168x elapsed=0:04:08.81    \nframe=  211 fps=0.8 q=41.9 size=     768KiB time=00:00:04.18 bitrate=1505.2kbits/s speed=0.0168x elapsed=0:04:09.37    \nframe=  211 fps=0.8 q=41.9 size=     768KiB time=00:00:04.18 bitrate=1505.2kbits/s speed=0.0167x elapsed=0:04:09.96    \nframe=  211 fps=0.8 q=41.9 size=     768KiB time=00:00:04.18 bitrate=1505.2kbits/s speed=0.0167x elapsed=0:04:10.48    \nframe=  212 fps=0.8 q=42.0 size=     768KiB time=00:00:04.20 bitrate=1498.0kbits/s speed=0.0167x elapsed=0:04:11.02    \nframe=  212 fps=0.8 q=42.0 size=     768KiB time=00:00:04.20 bitrate=1498.0kbits/s speed=0.0167x elapsed=0:04:11.54    \nframe=  212 fps=0.8 q=42.0 size=     768KiB time=00:00:04.20 bitrate=1498.0kbits/s speed=0.0167x elapsed=0:04:12.11    \nframe=  212 fps=0.8 q=42.0 size=     768KiB time=00:00:04.20 bitrate=1498.0kbits/s speed=0.0166x elapsed=0:04:12.61    \nframe=  212 fps=0.8 q=42.0 size=     768KiB time=00:00:04.20 bitrate=1498.0kbits/s speed=0.0166x elapsed=0:04:13.17    \nframe=  213 fps=0.8 q=43.0 size=     768KiB time=00:00:04.22 bitrate=1490.9kbits/s speed=0.0166x elapsed=0:04:13.69    \nframe=  214 fps=0.8 q=43.0 size=     768KiB time=00:00:04.24 bitrate=1483.9kbits/s speed=0.0167x elapsed=0:04:14.23    \nframe=  214 fps=0.8 q=43.0 size=     768KiB time=00:00:04.24 bitrate=1483.9kbits/s speed=0.0166x elapsed=0:04:14.76    \nframe=  214 fps=0.8 q=43.0 size=     768KiB time=00:00:04.24 bitrate=1483.9kbits/s speed=0.0166x elapsed=0:04:15.32    \nframe=  214 fps=0.8 q=43.0 size=     768KiB time=00:00:04.24 bitrate=1483.9kbits/s speed=0.0166x elapsed=0:04:15.86    \nframe=  215 fps=0.8 q=34.1 size=     768KiB time=00:00:04.26 bitrate=1477.0kbits/s speed=0.0166x elapsed=0:04:16.38    \nframe=  216 fps=0.8 q=41.0 size=    1024KiB time=00:00:04.28 bitrate=1960.0kbits/s speed=0.0167x elapsed=0:04:16.90    \nframe=  216 fps=0.8 q=41.0 size=    1024KiB time=00:00:04.28 bitrate=1960.0kbits/s speed=0.0166x elapsed=0:04:17.41    \nframe=  216 fps=0.8 q=41.0 size=    1024KiB time=00:00:04.28 bitrate=1960.0kbits/s speed=0.0166x elapsed=0:04:18.00    \nframe=  216 fps=0.8 q=41.0 size=    1024KiB time=00:00:04.28 bitrate=1960.0kbits/s speed=0.0166x elapsed=0:04:18.50    \nframe=  218 fps=0.8 q=42.1 size=    1024KiB time=00:00:04.32 bitrate=1941.9kbits/s speed=0.0167x elapsed=0:04:19.03    \nframe=  218 fps=0.8 q=42.1 size=    1024KiB time=00:00:04.32 bitrate=1941.9kbits/s speed=0.0166x elapsed=0:04:19.55    \nframe=  218 fps=0.8 q=42.1 size=    1024KiB time=00:00:04.32 bitrate=1941.9kbits/s speed=0.0166x elapsed=0:04:20.08    \nframe=  220 fps=0.8 q=34.8 size=    1024KiB time=00:00:04.36 bitrate=1924.1kbits/s speed=0.0167x elapsed=0:04:20.60    \nframe=  221 fps=0.8 q=41.0 size=    1024KiB time=00:00:04.38 bitrate=1915.3kbits/s speed=0.0168x elapsed=0:04:21.13    \nframe=  222 fps=0.8 q=42.0 size=    1024KiB time=00:00:04.40 bitrate=1906.6kbits/s speed=0.0168x elapsed=0:04:21.65    \nframe=  222 fps=0.8 q=42.0 size=    1024KiB time=00:00:04.40 bitrate=1906.6kbits/s speed=0.0168x elapsed=0:04:22.17    \nframe=  223 fps=0.8 q=40.9 size=    1024KiB time=00:00:04.42 bitrate=1898.0kbits/s speed=0.0168x elapsed=0:04:22.67    \nframe=  223 fps=0.8 q=40.9 size=    1024KiB time=00:00:04.42 bitrate=1898.0kbits/s speed=0.0168x elapsed=0:04:23.22    \nframe=  224 fps=0.8 q=33.1 size=    1024KiB time=00:00:04.44 bitrate=1889.4kbits/s speed=0.0168x elapsed=0:04:23.74    \nframe=  224 fps=0.8 q=33.1 size=    1024KiB time=00:00:04.44 bitrate=1889.4kbits/s speed=0.0168x elapsed=0:04:24.26    \nframe=  224 fps=0.8 q=33.1 size=    1024KiB time=00:00:04.44 bitrate=1889.4kbits/s speed=0.0168x elapsed=0:04:24.77    \nframe=  226 fps=0.9 q=41.0 size=    1024KiB time=00:00:04.48 bitrate=1872.5kbits/s speed=0.0169x elapsed=0:04:25.33    \nframe=  226 fps=0.9 q=41.0 size=    1024KiB time=00:00:04.48 bitrate=1872.5kbits/s speed=0.0169x elapsed=0:04:25.87    \nframe=  226 fps=0.8 q=41.0 size=    1024KiB time=00:00:04.48 bitrate=1872.5kbits/s speed=0.0168x elapsed=0:04:26.45    \nframe=  226 fps=0.8 q=41.0 size=    1024KiB time=00:00:04.48 bitrate=1872.5kbits/s speed=0.0168x elapsed=0:04:27.02    \nframe=  226 fps=0.8 q=41.0 size=    1024KiB time=00:00:04.48 bitrate=1872.5kbits/s speed=0.0167x elapsed=0:04:27.60    \nframe=  226 fps=0.8 q=41.0 size=    1024KiB time=00:00:04.48 bitrate=1872.5kbits/s speed=0.0167x elapsed=0:04:28.12    \nframe=  226 fps=0.8 q=41.0 size=    1024KiB time=00:00:04.48 bitrate=1872.5kbits/s speed=0.0167x elapsed=0:04:28.65    \nframe=  226 fps=0.8 q=41.0 size=    1024KiB time=00:00:04.48 bitrate=1872.5kbits/s speed=0.0166x elapsed=0:04:29.17    \nframe=  226 fps=0.8 q=41.0 size=    1024KiB time=00:00:04.48 bitrate=1872.5kbits/s speed=0.0166x elapsed=0:04:29.68    \nframe=  226 fps=0.8 q=41.0 size=    1024KiB time=00:00:04.48 bitrate=1872.5kbits/s speed=0.0166x elapsed=0:04:30.19    \nframe=  226 fps=0.8 q=41.0 size=    1024KiB time=00:00:04.48 bitrate=1872.5kbits/s speed=0.0165x elapsed=0:04:30.74    \nframe=  227 fps=0.8 q=40.0 size=    1024KiB time=00:00:04.50 bitrate=1864.2kbits/s speed=0.0166x elapsed=0:04:31.27    \nframe=  227 fps=0.8 q=40.0 size=    1024KiB time=00:00:04.50 bitrate=1864.2kbits/s speed=0.0166x elapsed=0:04:31.80    \nframe=  228 fps=0.8 q=32.9 size=    1024KiB time=00:00:04.52 bitrate=1856.0kbits/s speed=0.0166x elapsed=0:04:32.33    \nframe=  228 fps=0.8 q=32.9 size=    1024KiB time=00:00:04.52 bitrate=1856.0kbits/s speed=0.0166x elapsed=0:04:32.85    \nframe=  229 fps=0.8 q=39.7 size=    1024KiB time=00:00:04.54 bitrate=1847.8kbits/s speed=0.0166x elapsed=0:04:33.37    \nframe=  229 fps=0.8 q=39.7 size=    1024KiB time=00:00:04.54 bitrate=1847.8kbits/s speed=0.0166x elapsed=0:04:33.91    \nframe=  230 fps=0.8 q=41.0 size=    1024KiB time=00:00:04.56 bitrate=1839.7kbits/s speed=0.0166x elapsed=0:04:34.48    \nframe=  231 fps=0.8 q=40.0 size=    1024KiB time=00:00:04.58 bitrate=1831.7kbits/s speed=0.0167x elapsed=0:04:34.99    \nframe=  231 fps=0.8 q=40.0 size=    1024KiB time=00:00:04.58 bitrate=1831.7kbits/s speed=0.0166x elapsed=0:04:35.51    \nframe=  231 fps=0.8 q=40.0 size=    1024KiB time=00:00:04.58 bitrate=1831.7kbits/s speed=0.0166x elapsed=0:04:36.03    \nframe=  231 fps=0.8 q=40.0 size=    1024KiB time=00:00:04.58 bitrate=1831.7kbits/s speed=0.0166x elapsed=0:04:36.59    \nframe=  231 fps=0.8 q=40.0 size=    1024KiB time=00:00:04.58 bitrate=1831.7kbits/s speed=0.0165x elapsed=0:04:37.11    \nframe=  231 fps=0.8 q=40.0 size=    1024KiB time=00:00:04.58 bitrate=1831.7kbits/s speed=0.0165x elapsed=0:04:37.63    \nframe=  231 fps=0.8 q=40.0 size=    1024KiB time=00:00:04.58 bitrate=1831.7kbits/s speed=0.0165x elapsed=0:04:38.16    \nframe=  231 fps=0.8 q=40.0 size=    1024KiB time=00:00:04.58 bitrate=1831.7kbits/s speed=0.0164x elapsed=0:04:38.70    \nframe=  231 fps=0.8 q=40.0 size=    1024KiB time=00:00:04.58 bitrate=1831.7kbits/s speed=0.0164x elapsed=0:04:39.24    \nframe=  231 fps=0.8 q=40.0 size=    1024KiB time=00:00:04.58 bitrate=1831.7kbits/s speed=0.0164x elapsed=0:04:39.76    \nframe=  231 fps=0.8 q=40.0 size=    1024KiB time=00:00:04.58 bitrate=1831.7kbits/s speed=0.0163x elapsed=0:04:40.31    \nframe=  231 fps=0.8 q=40.0 size=    1024KiB time=00:00:04.58 bitrate=1831.7kbits/s speed=0.0163x elapsed=0:04:40.88    \nframe=  231 fps=0.8 q=40.0 size=    1024KiB time=00:00:04.58 bitrate=1831.7kbits/s speed=0.0163x elapsed=0:04:41.40    \nframe=  232 fps=0.8 q=33.4 size=    1024KiB time=00:00:04.60 bitrate=1823.7kbits/s speed=0.0163x elapsed=0:04:41.92    \nframe=  232 fps=0.8 q=33.4 size=    1024KiB time=00:00:04.60 bitrate=1823.7kbits/s speed=0.0163x elapsed=0:04:42.51    \nframe=  234 fps=0.8 q=40.0 size=    1024KiB time=00:00:04.64 bitrate=1808.0kbits/s speed=0.0164x elapsed=0:04:43.09    \nframe=  234 fps=0.8 q=40.0 size=    1024KiB time=00:00:04.64 bitrate=1808.0kbits/s speed=0.0164x elapsed=0:04:43.60    \nframe=  235 fps=0.8 q=41.0 size=    1024KiB time=00:00:04.66 bitrate=1800.2kbits/s speed=0.0164x elapsed=0:04:44.12    \nframe=  235 fps=0.8 q=41.0 size=    1024KiB time=00:00:04.66 bitrate=1800.2kbits/s speed=0.0164x elapsed=0:04:44.69    \nframe=  235 fps=0.8 q=41.0 size=    1024KiB time=00:00:04.66 bitrate=1800.2kbits/s speed=0.0163x elapsed=0:04:45.22    \nframe=  235 fps=0.8 q=41.0 size=    1024KiB time=00:00:04.66 bitrate=1800.2kbits/s speed=0.0163x elapsed=0:04:45.76    \nframe=  235 fps=0.8 q=41.0 size=    1024KiB time=00:00:04.66 bitrate=1800.2kbits/s speed=0.0163x elapsed=0:04:46.28    \nframe=  235 fps=0.8 q=41.0 size=    1024KiB time=00:00:04.66 bitrate=1800.2kbits/s speed=0.0162x elapsed=0:04:46.81    \nframe=  235 fps=0.8 q=41.0 size=    1024KiB time=00:00:04.66 bitrate=1800.2kbits/s speed=0.0162x elapsed=0:04:47.34    \nframe=  235 fps=0.8 q=41.0 size=    1024KiB time=00:00:04.66 bitrate=1800.2kbits/s speed=0.0162x elapsed=0:04:47.86    \nframe=  236 fps=0.8 q=40.0 size=    1024KiB time=00:00:04.68 bitrate=1792.5kbits/s speed=0.0162x elapsed=0:04:48.36    \nframe=  236 fps=0.8 q=40.0 size=    1024KiB time=00:00:04.68 bitrate=1792.5kbits/s speed=0.0162x elapsed=0:04:48.88    \nframe=  236 fps=0.8 q=40.0 size=    1024KiB time=00:00:04.68 bitrate=1792.5kbits/s speed=0.0162x elapsed=0:04:49.43    \nframe=  236 fps=0.8 q=40.0 size=    1024KiB time=00:00:04.68 bitrate=1792.5kbits/s speed=0.0161x elapsed=0:04:49.97    \nframe=  236 fps=0.8 q=40.0 size=    1024KiB time=00:00:04.68 bitrate=1792.5kbits/s speed=0.0161x elapsed=0:04:50.52    \nframe=  236 fps=0.8 q=40.0 size=    1024KiB time=00:00:04.68 bitrate=1792.5kbits/s speed=0.0161x elapsed=0:04:51.12    \nframe=  237 fps=0.8 q=33.3 size=    1024KiB time=00:00:04.70 bitrate=1784.9kbits/s speed=0.0161x elapsed=0:04:51.66    \nframe=  237 fps=0.8 q=33.3 size=    1024KiB time=00:00:04.70 bitrate=1784.9kbits/s speed=0.0161x elapsed=0:04:52.18    \nframe=  238 fps=0.8 q=38.8 size=    1024KiB time=00:00:04.72 bitrate=1777.3kbits/s speed=0.0161x elapsed=0:04:52.70    \nframe=  238 fps=0.8 q=38.8 size=    1024KiB time=00:00:04.72 bitrate=1777.3kbits/s speed=0.0161x elapsed=0:04:53.22    \nframe=  238 fps=0.8 q=38.8 size=    1024KiB time=00:00:04.72 bitrate=1777.3kbits/s speed=0.0161x elapsed=0:04:53.76    \nframe=  239 fps=0.8 q=40.0 size=    1024KiB time=00:00:04.74 bitrate=1769.8kbits/s speed=0.0161x elapsed=0:04:54.28    \nframe=  239 fps=0.8 q=40.0 size=    1024KiB time=00:00:04.74 bitrate=1769.8kbits/s speed=0.0161x elapsed=0:04:54.80    \nframe=  240 fps=0.8 q=40.0 size=    1024KiB time=00:00:04.76 bitrate=1762.4kbits/s speed=0.0161x elapsed=0:04:55.32    \nframe=  240 fps=0.8 q=40.0 size=    1024KiB time=00:00:04.76 bitrate=1762.4kbits/s speed=0.0161x elapsed=0:04:55.83    \nframe=  240 fps=0.8 q=40.0 size=    1024KiB time=00:00:04.76 bitrate=1762.4kbits/s speed=0.0161x elapsed=0:04:56.35    \nframe=  240 fps=0.8 q=40.0 size=    1024KiB time=00:00:04.76 bitrate=1762.4kbits/s speed=0.016x elapsed=0:04:56.89    \nframe=  240 fps=0.8 q=40.0 size=    1024KiB time=00:00:04.76 bitrate=1762.4kbits/s speed=0.016x elapsed=0:04:57.41    \nframe=  241 fps=0.8 q=33.5 size=    1024KiB time=00:00:04.78 bitrate=1755.0kbits/s speed=0.016x elapsed=0:04:57.94    \nframe=  241 fps=0.8 q=33.5 size=    1024KiB time=00:00:04.78 bitrate=1755.0kbits/s speed=0.016x elapsed=0:04:58.50    \nframe=  242 fps=0.8 q=38.2 size=    1024KiB time=00:00:04.80 bitrate=1747.7kbits/s speed=0.0161x elapsed=0:04:59.02    \nframe=  242 fps=0.8 q=38.2 size=    1024KiB time=00:00:04.80 bitrate=1747.7kbits/s speed=0.016x elapsed=0:04:59.55    \nframe=  243 fps=0.8 q=38.1 size=    1024KiB time=00:00:04.82 bitrate=1740.4kbits/s speed=0.0161x elapsed=0:05:00.08    \nframe=  244 fps=0.8 q=38.0 size=    1024KiB time=00:00:04.84 bitrate=1733.3kbits/s speed=0.0161x elapsed=0:05:00.65    \nframe=  244 fps=0.8 q=38.0 size=    1024KiB time=00:00:04.84 bitrate=1733.3kbits/s speed=0.0161x elapsed=0:05:01.20    \nframe=  245 fps=0.8 q=37.9 size=    1024KiB time=00:00:04.86 bitrate=1726.1kbits/s speed=0.0161x elapsed=0:05:01.75    \nframe=  246 fps=0.8 q=35.1 size=    1024KiB time=00:00:04.86 bitrate=1726.1kbits/s speed=0.0161x elapsed=0:05:02.36    \nframe=  246 fps=0.8 q=35.1 size=    1024KiB time=00:00:04.88 bitrate=1719.0kbits/s speed=0.0161x elapsed=0:05:02.95    \nframe=  246 fps=0.8 q=35.1 size=    1024KiB time=00:00:04.88 bitrate=1719.0kbits/s speed=0.0161x elapsed=0:05:03.54    \nframe=  246 fps=0.8 q=35.1 size=    1024KiB time=00:00:04.88 bitrate=1719.0kbits/s speed=0.016x elapsed=0:05:04.09    \nframe=  246 fps=0.8 q=35.1 size=    1024KiB time=00:00:04.88 bitrate=1719.0kbits/s speed=0.016x elapsed=0:05:04.72    \nframe=  246 fps=0.8 q=35.1 size=    1024KiB time=00:00:04.88 bitrate=1719.0kbits/s speed=0.016x elapsed=0:05:05.27    \nframe=  247 fps=0.8 q=33.2 size=    1024KiB time=00:00:04.88 bitrate=1719.0kbits/s speed=0.016x elapsed=0:05:05.84    \nframe=  247 fps=0.8 q=33.2 size=    1024KiB time=00:00:04.90 bitrate=1712.0kbits/s speed=0.016x elapsed=0:05:06.38    \nframe=  248 fps=0.8 q=37.9 size=    1024KiB time=00:00:04.92 bitrate=1705.1kbits/s speed=0.016x elapsed=0:05:06.94    \nframe=  248 fps=0.8 q=37.9 size=    1024KiB time=00:00:04.92 bitrate=1705.1kbits/s speed=0.016x elapsed=0:05:07.50    \n[mp4 @ 000001c8f3afaa40] Starting second pass: moving the moov atom to the beginning of the file\n[out#0/mp4 @ 000001c8f3b87d80] video:1185KiB audio:0KiB subtitle:0KiB other streams:0KiB global headers:2KiB muxing overhead: 0.521105%\nframe=  250 fps=0.8 q=37.0 Lsize=    1191KiB time=00:00:04.96 bitrate=1967.6kbits/s speed=0.0161x elapsed=0:05:08.02    \nx265 [info]: frame I:      1, Avg QP:41.06  kb/s: 19828.80\nx265 [info]: frame P:     53, Avg QP:34.18  kb/s: 7853.53 \nx265 [info]: frame B:    196, Avg QP:40.98  kb/s: 249.81  \nx265 [info]: Weighted P-Frames: Y:0.0% UV:0.0%\n\nencoded 250 frames in 307.10s (0.81 fps), 1940.12 kb/s, Avg QP:39.54\n",
  "seconds": 308.62477374076843,
  "probe_out": {}
}